<svg width="107" height="34" viewBox="0 0 107 34" fill="none" xmlns="http://www.w3.org/2000/svg">
<path fill-rule="evenodd" clip-rule="evenodd" d="M30.7626 23.2159L30.7627 23.2162L30.7627 23.2162C30.8179 23.3522 30.873 23.4882 30.9281 23.6204C31.3606 24.8518 31.4936 26.0156 31.2293 27.1798C30.8629 29.6418 29.2327 31.7701 26.9029 32.7023C26.0712 33.0685 25.1397 33.2347 24.2079 33.2347C23.9416 33.2347 23.6085 33.2018 23.3422 33.1679C22.2441 33.035 21.1132 32.6694 20.0145 32.0373C18.6834 31.2719 17.3523 30.1745 15.8883 28.5776C14.4242 30.1745 13.1264 31.2719 11.762 32.0373C10.6637 32.6694 9.53239 33.035 8.43401 33.1679C8.1674 33.2015 7.83496 33.2347 7.56868 33.2347C6.63719 33.2347 5.73861 33.0685 4.87327 32.7023C2.57679 31.7701 0.913271 29.675 0.547257 27.1798C0.380373 25.9817 0.51368 24.8172 0.946514 23.5865C1.11273 23.1542 1.27895 22.755 1.44517 22.3888C1.56352 22.1229 1.68193 21.8635 1.7974 21.6106C1.94175 21.2944 2.08149 20.9883 2.21078 20.6922L2.24435 20.626C4.5405 15.636 7.03611 10.5794 9.59854 5.58963L9.69861 5.38956C9.97099 4.8716 10.2371 4.35034 10.4968 3.8259C10.8292 3.22669 11.1956 2.59458 11.6949 1.99604C12.7926 0.732146 14.2899 0 15.9541 0C17.5844 0 19.1152 0.732146 20.18 2.06284C20.6709 2.61515 20.9918 3.19485 21.2998 3.75145L21.3781 3.8927C21.6372 4.41747 21.9033 4.93874 22.1763 5.45637L22.2761 5.65643C24.8721 10.6462 27.3341 15.7024 29.6306 20.6928L29.6638 20.7261C29.7938 21.0238 29.9345 21.3321 30.0798 21.6507C30.1943 21.9017 30.3116 22.159 30.4291 22.4227C30.5402 22.6674 30.6514 22.9417 30.7626 23.2159L30.7626 23.2159ZM56.6179 8.35075C56.6179 9.54851 55.6525 10.513 54.4544 10.513C53.2563 10.513 52.2915 9.54851 52.2915 8.35075C52.2915 7.153 53.2233 6.18854 54.4544 6.18854C55.6864 6.22178 56.6179 7.18656 56.6179 8.35075ZM47.6992 12.7091V13.2415C47.6992 13.2415 46.668 11.9101 44.4716 11.9101C40.8447 11.9101 38.0157 14.6715 38.0157 18.4971C38.0157 22.2898 40.8115 25.0841 44.4716 25.0841C46.7013 25.0841 47.6992 23.7202 47.6992 23.7202V24.2855C47.6992 24.5517 47.8994 24.7508 48.1653 24.7508H50.8604V12.2418H48.1653C47.8994 12.2428 47.6992 12.4761 47.6992 12.7091ZM45.0042 22.0904C46.202 22.0904 47.2006 21.4583 47.6993 20.7261V16.2681C47.2339 15.5695 46.1691 14.9042 45.0042 14.9042C42.8746 14.9042 41.2437 16.2349 41.2437 18.4971C41.2437 20.7597 42.8746 22.0904 45.0042 22.0904ZM52.8573 12.2428H56.0517V24.7518H52.8573V12.2428ZM97.3488 13.2411C97.3488 13.2411 98.3807 11.9097 100.577 11.9097C104.171 11.9097 106.999 14.7054 106.999 18.4981C106.999 22.2907 104.171 25.0844 100.543 25.0844C98.3474 25.0844 97.3155 23.7205 97.3155 23.7205V24.2858C97.3155 24.5187 97.1164 24.7517 96.8501 24.7517H94.1544V6.22173H97.3488V13.2411ZM100.045 22.0567C98.8128 22.0567 97.8481 21.4253 97.3488 20.6928V16.2348C97.8481 15.5695 98.9129 14.8709 100.045 14.8709C102.174 14.8709 103.805 16.2016 103.805 18.4638C103.805 20.7261 102.174 22.0567 100.045 22.0567ZM92.4909 24.785V17.3333C92.4909 15.2372 92.0578 14.0398 90.9268 13.1082C89.995 12.3099 88.8301 11.9101 87.4322 11.9101C86.2012 11.9101 84.9702 12.2764 84.0384 13.2415V12.7091C84.0384 12.4761 83.8386 12.2431 83.5723 12.2431H81.0441V24.7521H84.2378V16.0358C84.8711 15.3036 85.8698 14.8045 86.8345 14.8045C88.6303 14.8045 89.2959 15.6367 89.2959 17.6988V24.785H92.4909ZM73.2893 11.9097C71.0936 11.9097 70.0617 13.2411 70.0617 13.2411V6.22173H66.8673V24.7517H69.5624C69.8286 24.7517 70.0284 24.5187 70.0284 24.2858V23.7205C70.0284 23.7205 71.0603 25.0844 73.2561 25.0844C76.8836 25.0844 79.712 22.2907 79.712 18.4981C79.7453 14.7051 76.9169 11.9097 73.2893 11.9097ZM70.0617 20.6928C70.561 21.4253 71.5257 22.0567 72.7568 22.0567C74.887 22.0567 76.5173 20.7261 76.5173 18.4638C76.5173 16.2016 74.887 14.8709 72.7568 14.8709C71.6258 14.8709 70.561 15.5695 70.0617 16.2348V20.6928ZM64.105 11.9097C65.0698 11.9097 65.5691 12.0765 65.5691 12.0765V15.037C65.5691 15.037 62.9069 14.1387 61.2434 16.0354V24.7846H58.0484V12.2427H60.7441C61.0104 12.2427 61.2095 12.4757 61.2095 12.7087V13.2411C61.8092 12.5422 63.1071 11.9097 64.105 11.9097ZM15.9205 25.3502C14.1233 23.088 12.9585 20.959 12.5596 19.163C12.3933 18.3977 12.3598 17.7323 12.4598 17.1334C12.526 16.601 12.7261 16.1351 12.9924 15.7359C13.6247 14.8383 14.6895 14.2723 15.9208 14.2723C17.1525 14.2723 18.2506 14.8047 18.8496 15.7359C19.1159 16.1351 19.3154 16.6014 19.3825 17.1334C19.4819 17.7326 19.4487 18.4309 19.2824 19.163C18.8819 20.9258 17.717 23.0551 15.9205 25.3502ZM26.1695 30.8066C27.7998 30.1412 28.9647 28.6437 29.1974 26.9139C29.3307 26.0491 29.231 25.217 28.9654 24.3529C28.896 24.1213 28.7944 23.8901 28.683 23.6367C28.6342 23.5257 28.5835 23.4105 28.5328 23.2891C28.4001 23.0232 28.2756 22.7412 28.1512 22.4592C28.0261 22.1756 27.9009 21.8919 27.7672 21.6247V21.5915C25.4326 16.5559 23.0029 11.5649 20.4795 6.62118L20.3795 6.42111C20.2492 6.17661 20.1188 5.92395 19.9882 5.67106C19.8526 5.40834 19.7168 5.14536 19.581 4.89102C19.3147 4.3596 19.0155 3.86043 18.6491 3.42672C17.9504 2.62911 17.0189 2.19607 15.987 2.19607C14.9551 2.19607 14.0236 2.62911 13.3248 3.42672C12.9585 3.85943 12.6593 4.35861 12.393 4.89102C12.2639 5.13334 12.1347 5.3835 12.0054 5.63381C11.8684 5.89912 11.7313 6.1646 11.5941 6.42111L11.4944 6.62118C8.93198 11.5445 6.46962 16.601 4.1738 21.5582L4.14022 21.6244C3.87361 22.1897 3.60799 22.7556 3.37495 23.2881C3.32392 23.4106 3.27283 23.5268 3.22365 23.6387C3.11263 23.8913 3.01133 24.1218 2.94245 24.3525C2.60935 25.2841 2.54319 26.1156 2.64292 26.9471C2.87563 28.677 4.04049 30.1745 5.67077 30.8398C6.43604 31.1389 7.30171 31.2722 8.19995 31.1722C9.03171 31.0728 9.86314 30.8066 10.7285 30.3074C11.9266 29.6421 13.1579 28.6105 14.5223 27.0801C12.3594 24.3854 10.9951 21.8902 10.4961 19.6951C10.2298 18.6968 10.1969 17.7323 10.3299 16.8669C10.4629 16.0354 10.7627 15.27 11.2285 14.6047C12.26 13.141 13.9907 12.2427 15.9202 12.2427C17.8496 12.2427 19.5803 13.1071 20.6125 14.6047C21.0783 15.27 21.3781 16.0354 21.5108 16.8669C21.6112 17.7323 21.5776 18.6635 21.3445 19.6951C20.8452 21.8902 19.5141 24.3525 17.3181 27.0468C18.716 28.5776 19.9137 29.6082 21.1118 30.2742C21.9765 30.7727 22.8089 31.0389 23.6407 31.1389C24.5054 31.239 25.371 31.1389 26.1695 30.8066Z" fill="#7F7F7F"/>
</svg>
