<svg width="94" height="29" viewBox="0 0 94 29" fill="none" xmlns="http://www.w3.org/2000/svg">
<path fill-rule="evenodd" clip-rule="evenodd" d="M49.0657 16.8289C49.2932 16.9589 49.5532 16.9264 49.7482 16.7638C49.9557 16.5909 50.2204 16.3649 50.5032 16.1234L50.5037 16.123L50.5039 16.1228C51.0183 15.6836 51.5924 15.1933 51.9908 14.8788C52.2183 14.7163 52.1858 14.3913 51.9908 14.1313C51.9281 14.0412 51.865 13.9535 51.8024 13.8666L51.8023 13.8665C51.3456 13.2319 50.9182 12.6381 50.9182 11.4662V7.0136C50.9182 6.86478 50.919 6.71678 50.9198 6.56975C50.9292 4.85428 50.9379 3.27087 49.6507 2.07347C48.5457 1.00094 46.7256 0.643433 45.3281 0.643433C42.598 0.643433 39.5754 1.65096 38.9254 5.03105C38.8604 5.38856 39.1204 5.55106 39.3479 5.61606L42.1105 5.90857C42.3705 5.90857 42.533 5.64856 42.598 5.38856C42.8255 4.21852 43.8006 3.66601 44.9056 3.66601C45.4906 3.66601 46.1406 3.89352 46.4981 4.41353C46.8717 4.93073 46.8641 5.62575 46.8574 6.25155V6.25195V6.25235V6.25274V6.25313C46.8565 6.33464 46.8556 6.41498 46.8556 6.49358V6.85109C46.586 6.88282 46.3025 6.91282 46.0103 6.94377C44.5059 7.10302 42.7667 7.28714 41.4605 7.85862C39.6729 8.63864 38.4054 10.1987 38.4054 12.5387C38.4054 15.4963 40.2905 16.9914 42.6955 16.9914C44.7106 16.9914 45.8481 16.5038 47.4081 14.9113C47.4836 15.0198 47.5523 15.1208 47.6174 15.2166L47.6175 15.2168C48.0006 15.7804 48.2601 16.1622 49.0657 16.8289ZM17.1499 16.7964H20.01C20.335 16.7964 20.5625 16.5689 20.595 16.3089V8.50866L20.5949 8.35425C20.593 6.64972 20.5905 4.44606 22.5775 4.44606C24.3918 4.44606 24.3618 6.42208 24.3378 8.00194C24.3352 8.17677 24.3326 8.34675 24.3326 8.50866V16.3089C24.3326 16.5689 24.5601 16.7964 24.8526 16.8289H27.7127C28.0052 16.8289 28.2652 16.6014 28.2652 16.3089V8.50866C28.2652 8.43425 28.2649 8.35681 28.2647 8.27694C28.262 7.4499 28.2584 6.36278 28.5252 5.68109C28.8177 4.93357 29.5652 4.47856 30.2477 4.47856C31.0928 4.47856 31.7103 4.77107 31.9378 5.74609C32.0398 6.20518 32.0217 7.26473 32.0092 7.99802L32.0092 7.99823C32.0058 8.19928 32.0028 8.37579 32.0028 8.50866V16.3089C32.0028 16.5689 32.2303 16.7964 32.5228 16.8289H35.3504C35.6429 16.8289 35.9029 16.6014 35.9029 16.3089V7.01363C35.9029 6.77673 35.9072 6.53551 35.9115 6.29245L35.9115 6.29199C35.9364 4.90118 35.9624 3.44971 35.1879 2.39851C34.3753 1.26098 33.0753 0.773464 31.8728 0.773464C30.1827 0.773464 28.5902 1.65099 27.9077 3.50353C27.1276 1.65099 25.9901 0.773464 24.2026 0.773464C22.4475 0.773464 21.115 1.65099 20.4325 3.50353H20.3675V1.58598C20.335 1.32598 20.14 1.09847 19.8475 1.09847H17.1824C16.8899 1.09847 16.6299 1.32598 16.6299 1.61849V16.3089C16.6624 16.5689 16.8899 16.7639 17.1499 16.7964ZM54.3633 1.586V3.69855C54.3633 3.99106 54.6233 4.21856 54.9158 4.21856H59.8234L54.1683 12.3113C53.8108 12.8313 53.8108 13.4163 53.8108 13.7413V15.8864C53.8108 16.2114 54.1683 16.5364 54.4933 16.3739C57.6784 14.6513 61.546 14.8138 64.4385 16.3414C64.7961 16.5364 65.1211 16.1789 65.1211 15.8539V13.6113C65.0886 13.3188 64.9911 12.9938 64.6336 12.7988C63.0085 11.8888 61.091 11.6288 59.2709 11.6613L64.146 4.70608C64.6011 4.05606 64.8611 3.66605 64.8611 3.37354V1.586C64.8611 1.29349 64.6011 1.06598 64.3085 1.06598H54.8833C54.5908 1.06598 54.3633 1.26099 54.3633 1.586ZM72.9863 0.773464C77.2439 0.773464 79.5515 4.41356 79.5515 9.06118C79.5515 13.5463 77.0164 17.1214 72.9863 17.1214C68.8262 17.1214 66.5511 13.4813 66.5511 8.93118C66.5186 4.34856 68.8262 0.773464 72.9863 0.773464ZM70.7438 8.47613C70.7438 6.68859 70.8738 3.79601 72.9863 3.79601C73.8963 3.79601 74.5464 4.18602 74.8714 5.22605C75.2289 6.39608 75.2939 7.89112 75.2939 9.12615C75.2939 11.0112 75.1639 14.0988 72.9538 14.0988C70.7424 14.0988 70.7433 10.3694 70.7437 8.5517L70.7438 8.47613ZM85.0442 16.7964H82.1841C81.8916 16.7639 81.6641 16.5364 81.6641 16.2764V1.55348C81.6966 1.29348 81.9241 1.06597 82.2166 1.06597H84.8817C85.1417 1.06597 85.3367 1.26098 85.4017 1.48848V3.73104H85.4667C86.2792 1.71599 87.3842 0.773464 89.3668 0.773464C90.6343 0.773464 91.9018 1.22848 92.7144 2.49601C93.4619 3.66604 93.4619 5.64859 93.4619 7.07863V16.3414C93.4294 16.6014 93.2019 16.7964 92.9094 16.7964H90.0493C89.7893 16.7639 89.5618 16.5689 89.5293 16.3414V8.34616C89.5293 8.21559 89.5305 8.0804 89.5318 7.94218C89.5466 6.36018 89.565 4.38106 87.7417 4.38106C87.0592 4.38106 86.4092 4.83607 86.0842 5.55109C85.6942 6.46111 85.6292 7.33863 85.6292 8.34616V16.2764C85.5967 16.5689 85.3367 16.7964 85.0442 16.7964ZM12.1771 16.7639C11.9821 16.9264 11.7221 16.9589 11.4946 16.8289C10.689 16.1622 10.4295 15.7804 10.0464 15.2168C9.98133 15.121 9.91264 15.0199 9.83708 14.9113C8.27704 16.5039 7.13951 16.9914 5.12446 16.9914C2.7194 16.9914 0.834351 15.4963 0.834351 12.5388C0.834351 10.1987 2.10188 8.63865 3.88943 7.85863C5.19567 7.28715 6.93485 7.10303 8.4392 6.94378L8.4393 6.94377L8.43932 6.94376L8.43933 6.94376C8.73157 6.91282 9.01495 6.88282 9.28457 6.8511V6.49359C9.28457 6.4146 9.28544 6.33387 9.28633 6.25196V6.25183V6.2517V6.25157C9.29309 5.62577 9.3006 4.93074 8.92706 4.41354C8.56955 3.89353 7.91953 3.66602 7.33452 3.66602C6.22949 3.66602 5.25447 4.21853 5.02696 5.38857C4.96196 5.64857 4.79945 5.90858 4.53945 5.90858L1.77688 5.61607C1.54937 5.55107 1.28936 5.38857 1.35436 5.03106C2.00438 1.65097 5.02696 0.643443 7.75703 0.643443C9.15457 0.643443 10.9746 1.00095 12.0796 2.07348C13.3668 3.27088 13.3582 4.85429 13.3488 6.56975V6.56997V6.5702V6.57042C13.348 6.71724 13.3472 6.86502 13.3472 7.01361V11.4662C13.3472 12.6381 13.7745 13.2319 14.2313 13.8665L14.2313 13.8665L14.2313 13.8666L14.2313 13.8666C14.2939 13.9535 14.357 14.0412 14.4197 14.1313C14.6147 14.3913 14.6472 14.7163 14.4197 14.8788C14.0214 15.1933 13.4472 15.6835 12.9328 16.1228C12.6498 16.3645 12.3848 16.5908 12.1771 16.7639ZM46.8558 9.95062L46.8556 9.77621V9.15869C44.7756 9.15869 42.598 9.61371 42.598 12.0513C42.598 13.2863 43.248 14.1313 44.3531 14.1313C45.1656 14.1313 45.8806 13.6438 46.3356 12.8313C46.8588 11.8772 46.8574 10.9814 46.8558 9.95062ZM9.31711 9.77621L9.31729 9.95062C9.31891 10.9814 9.32032 11.8772 8.79709 12.8313C8.34208 13.6438 7.62706 14.1313 6.81454 14.1313C5.70951 14.1313 5.0595 13.2863 5.0595 12.0513C5.0595 9.61371 7.23705 9.15869 9.31711 9.15869V9.77621ZM60.5384 19.8839C59.8559 19.0064 55.9883 19.4614 54.2658 19.6889C53.7458 19.7539 53.6483 19.2989 54.1358 18.9739C57.2233 16.7963 62.261 17.4463 62.846 18.1614C63.431 18.8764 62.6835 23.9465 59.7909 26.3516C59.3359 26.7091 58.9134 26.5141 59.1084 26.0266L59.1435 25.9389C59.8092 24.2754 61.2089 20.7779 60.5384 19.8839ZM58.2959 22.4515C52.9333 26.4166 45.1331 28.5291 38.4054 28.5291C28.9802 28.5291 20.5299 25.0515 14.0948 19.2664C13.6073 18.8114 14.0298 18.1938 14.6473 18.5514C21.57 22.5815 30.1177 24.9865 38.9579 24.9865C44.9056 24.9865 51.4707 23.7515 57.5159 21.1839C58.4259 20.8264 59.1734 21.8014 58.2959 22.4515Z" fill="#7F7F7F"/>
</svg>
