<svg width="106" height="21" viewBox="0 0 106 21" fill="none" xmlns="http://www.w3.org/2000/svg">
<path fill-rule="evenodd" clip-rule="evenodd" d="M2.13428 20.1971H6.40578V10.1536H9.25588L9.63332 6.6931H6.40578L6.41115 4.96093C6.41115 4.05832 6.49904 3.57453 7.83205 3.57453H9.61379V0.113037H6.7632C3.33936 0.113037 2.13477 1.79161 2.13477 4.61516V6.69358H0V10.1541H2.13428V20.1971ZM40.4264 9.61487C38.9757 9.61487 38.6446 10.3885 38.6446 11.3466V11.8849H42.2062V11.3466C42.2062 10.3885 41.8751 9.61487 40.4264 9.61487ZM54.3121 9.96388C53.4411 9.96388 52.8131 10.2413 52.1764 10.524V16.9205C52.7863 16.977 53.1359 16.977 53.7145 16.977C55.8053 16.977 56.0919 16.0469 56.0919 14.7482V11.6932C56.0919 10.7342 55.7643 9.96388 54.3121 9.96388ZM14.7075 17.4243C13.895 17.4243 13.5269 17.0306 13.5269 16.2726C13.5269 15.5104 13.9234 15.3473 14.8257 15.3473H16.7315V16.8646C16.6701 16.892 16.6098 16.9193 16.5502 16.9462L16.5497 16.9465C15.992 17.199 15.4948 17.4243 14.7075 17.4243ZM67.8195 9.96388C66.3664 9.96388 65.863 10.7342 65.863 11.6932V15.1931C65.863 16.1545 66.3664 16.9272 67.8195 16.9272C69.2687 16.9272 69.7761 16.1545 69.7761 15.1931V11.6932C69.7756 10.7342 69.2682 9.96388 67.8195 9.96388ZM21.0039 20.2232H17.4439L17.2901 19.3485C15.6646 20.2232 14.2139 20.365 13.2568 20.365C10.646 20.365 9.25634 18.6707 9.25634 16.3277C9.25634 13.5634 10.8779 12.5768 13.7788 12.5768H16.7315V11.9792C16.7315 10.5682 16.565 10.1541 14.3311 10.1541H10.6787L11.0356 6.69354H15.0278C19.9292 6.69354 21.0039 8.19757 21.0039 12.0072V20.2232ZM29.1925 9.95778C30.2584 9.95778 30.8946 10.0389 33.11 10.4079V7.03415C31.1695 6.60965 29.9054 6.49818 28.837 6.49818C24.251 6.49818 22.4283 8.84506 22.4283 12.2321V14.6563C22.4283 18.0405 24.251 20.3831 28.837 20.3831C29.9054 20.3831 31.1695 20.2721 33.11 19.8495V16.4738C30.8946 16.8442 30.2584 16.9268 29.1925 16.9268C27.2779 16.9268 26.6993 16.5146 26.6993 14.9352V11.9475C26.6993 10.3681 27.2779 9.95778 29.1925 9.95778ZM46.4772 14.6563H38.6442V14.9352C38.6442 16.5146 39.2233 16.9268 41.1373 16.9268C42.858 16.9268 43.9083 16.8442 46.1198 16.4738V19.8495C43.9869 20.2721 42.8756 20.3831 40.7833 20.3831C36.1969 20.3831 34.3732 18.0405 34.3732 14.6563V11.8844C34.3732 8.92332 35.7262 6.49818 40.4259 6.49818C45.1256 6.49818 46.4772 8.89533 46.4772 11.8844V14.6563ZM53.5699 20.3768C59.4 20.3768 60.3624 17.9911 60.3624 14.7203H60.3619V11.347C60.3619 8.35837 59.6505 6.49861 55.38 6.49861C54.2931 6.49861 53.0987 6.66794 52.1759 7.0009V0.460681L47.9059 1.1527V19.8499C50.2296 20.1971 51.4645 20.3768 53.5699 20.3768ZM74.0504 14.7914C74.0504 17.6131 72.8512 20.3498 67.8336 20.3498C62.8136 20.3498 61.5919 17.6131 61.5919 14.7914V12.067C61.5919 9.24394 62.8136 6.50671 67.8336 6.50671C72.8512 6.50671 74.0504 9.24394 74.0504 12.067V14.7914ZM81.5119 20.3498C86.5285 20.3498 87.7292 17.6131 87.7292 14.7914V12.067C87.7292 9.24394 86.5285 6.50671 81.5119 6.50671C76.4918 6.50671 75.2701 9.24394 75.2701 12.067V14.7914C75.2701 17.6131 76.4918 20.3498 81.5119 20.3498ZM101.767 20.1971H97.1384L93.2238 13.8495V20.1971H88.9523V1.15228L93.2238 0.460265V12.7206L97.1384 6.69361H101.767L97.4934 13.2708L101.767 20.1971ZM79.5432 11.6932C79.5432 10.7342 80.0466 9.96388 81.4973 9.96388C82.946 9.96388 83.4587 10.7342 83.4587 11.6932V15.1931C83.4587 16.1545 82.946 16.9272 81.4973 16.9272C80.0466 16.9272 79.5432 16.1545 79.5432 15.1931V11.6932ZM104.205 17.8284C104.924 17.8284 105.497 18.398 105.497 19.1095C105.497 19.8318 104.924 20.3953 104.199 20.3953C103.479 20.3953 102.894 19.8318 102.894 19.1095C102.894 18.398 103.479 17.8284 104.199 17.8284H104.205ZM103.146 19.1095C103.146 18.5118 103.62 18.0276 104.199 18.0276H104.205C104.79 18.0276 105.257 18.5123 105.257 19.1152C105.257 19.718 104.79 20.2018 104.205 20.1961C103.62 20.1961 103.146 19.718 103.146 19.1095ZM103.954 19.8552H103.719V18.4256L103.731 18.424C103.85 18.408 103.965 18.3924 104.136 18.3924C104.358 18.3924 104.504 18.4379 104.593 18.5001C104.679 18.5631 104.726 18.6594 104.726 18.7956C104.726 18.9843 104.598 19.0977 104.44 19.1437V19.1546C104.569 19.1778 104.656 19.2907 104.686 19.5008C104.72 19.7233 104.756 19.8082 104.779 19.8547H104.533C104.498 19.8082 104.463 19.6778 104.433 19.4895C104.399 19.3078 104.304 19.2395 104.117 19.2395H103.954V19.8552H103.954ZM104.124 19.0639H103.954V18.5792C103.994 18.574 104.047 18.5683 104.124 18.5683C104.387 18.5683 104.48 18.693 104.48 18.8183C104.48 18.9952 104.316 19.0639 104.124 19.0639Z" fill="#7F7F7F"/>
</svg>
