<svg width="17" height="16" viewBox="0 0 17 16" fill="none" xmlns="http://www.w3.org/2000/svg">
<path fill-rule="evenodd" clip-rule="evenodd" d="M8 0.00012207C3.6 0.00012207 0 3.60012 0 8.00012C0 11.5001 2.3 14.5001 5.5 15.6001C5.9 15.7001 6 15.4001 6 15.2001C6 15.0001 6 14.5001 6 13.8001C3.8 14.3001 3.3 12.8001 3.3 12.8001C2.9 11.9001 2.4 11.6001 2.4 11.6001C1.7 11.1001 2.5 11.1001 2.5 11.1001C3.3 11.2001 3.7 11.9001 3.7 11.9001C4.4 13.2001 5.6 12.8001 6 12.6001C6.1 12.1001 6.3 11.7001 6.5 11.5001C4.7 11.3001 2.9 10.6001 2.9 7.50012C2.9 6.60012 3.2 5.90012 3.7 5.40012C3.6 5.20012 3.3 4.40012 3.8 3.30012C3.8 3.30012 4.5 3.10012 6 4.10012C6.6 3.90012 7.3 3.80012 8 3.80012C8.7 3.80012 9.4 3.90012 10 4.10012C11.5 3.10012 12.2 3.30012 12.2 3.30012C12.6 4.40012 12.4 5.20012 12.3 5.40012C12.8 6.00012 13.1 6.70012 13.1 7.50012C13.1 10.6001 11.2 11.2001 9.4 11.4001C9.7 11.8001 10 12.3001 10 13.0001C10 14.1001 10 14.9001 10 15.2001C10 15.4001 10.1 15.7001 10.6 15.6001C13.8 14.5001 16.1 11.5001 16.1 8.00012C16 3.60012 12.4 0.00012207 8 0.00012207Z" fill="white" fill-opacity="0.64"/>
</svg>
