<svg width="38" height="34" viewBox="0 0 38 34" fill="none" xmlns="http://www.w3.org/2000/svg">
<g filter="url(#filter0_d_1_423)">
<rect x="3" y="2" width="32" height="32" rx="16" fill="white"/>
</g>
<path fill-rule="evenodd" clip-rule="evenodd" d="M19 10.2C14.6 10.2 11 13.8 11 18.2C11 21.7 13.3 24.7 16.5 25.8C16.9 25.9 17 25.6 17 25.4C17 25.2 17 24.7 17 24C14.8 24.5 14.3 23 14.3 23C13.9 22.1 13.4 21.8 13.4 21.8C12.7 21.3 13.5 21.3 13.5 21.3C14.3 21.4 14.7 22.1 14.7 22.1C15.4 23.4 16.6 23 17 22.8C17.1 22.3 17.3 21.9 17.5 21.7C15.7 21.5 13.9 20.8 13.9 17.7C13.9 16.8 14.2 16.1 14.7 15.6C14.6 15.4 14.3 14.6 14.8 13.5C14.8 13.5 15.5 13.3 17 14.3C17.6 14.1 18.3 14 19 14C19.7 14 20.4 14.1 21 14.3C22.5 13.3 23.2 13.5 23.2 13.5C23.6 14.6 23.4 15.4 23.3 15.6C23.8 16.2 24.1 16.9 24.1 17.7C24.1 20.8 22.2 21.4 20.4 21.6C20.7 22 21 22.5 21 23.2C21 24.3 21 25.1 21 25.4C21 25.6 21.1 25.9 21.6 25.8C24.8 24.7 27.1 21.7 27.1 18.2C27 13.8 23.4 10.2 19 10.2Z" fill="#666666"/>
<defs>
<filter id="filter0_d_1_423" x="0" y="0" width="38" height="38" filterUnits="userSpaceOnUse" color-interpolation-filters="sRGB">
<feFlood flood-opacity="0" result="BackgroundImageFix"/>
<feColorMatrix in="SourceAlpha" type="matrix" values="0 0 0 0 0 0 0 0 0 0 0 0 0 0 0 0 0 0 127 0" result="hardAlpha"/>
<feOffset dy="1"/>
<feGaussianBlur stdDeviation="1.5"/>
<feColorMatrix type="matrix" values="0 0 0 0 0.0980392 0 0 0 0 0.0980392 0 0 0 0 0.0980392 0 0 0 0.16 0"/>
<feBlend mode="normal" in2="BackgroundImageFix" result="effect1_dropShadow_1_423"/>
<feBlend mode="normal" in="SourceGraphic" in2="effect1_dropShadow_1_423" result="shape"/>
</filter>
</defs>
</svg>
