<svg width="97" height="26" viewBox="0 0 97 26" fill="none" xmlns="http://www.w3.org/2000/svg">
<path fill-rule="evenodd" clip-rule="evenodd" d="M86.039 11.9738C85.4304 11.032 84.5744 10.277 83.5041 9.70863C82.7043 9.28987 81.875 9.02409 80.9405 8.90994V5.91756C81.875 5.56066 82.455 4.77071 82.455 3.84913C82.455 2.593 81.3351 1.57509 79.9396 1.57509C78.543 1.57509 77.4034 2.593 77.4034 3.84913C77.4034 4.77071 77.95 5.56066 78.8845 5.91756V8.91128C78.1369 9.00845 77.3616 9.21809 76.6536 9.54019L75.1493 8.51242L75.1398 8.50596C73.07 7.09179 69.8081 4.86304 67.6917 3.41893C67.7575 3.2056 67.8081 2.98571 67.8081 2.75372C67.8081 1.36243 66.5555 0.234741 65.0081 0.234741C63.4607 0.234741 62.2086 1.36243 62.2086 2.75372C62.2086 4.14483 63.462 5.27286 65.0094 5.27286C65.5372 5.27286 66.0254 5.134 66.4467 4.9057L67.0321 5.30514L75.0759 10.5179C74.6507 10.8691 74.2546 11.2685 73.9378 11.7167C73.2958 12.6304 72.9034 13.6357 72.9034 14.7323V14.9611C72.9034 15.7309 73.0661 16.4576 73.3431 17.1403C73.587 17.7364 73.9436 18.2784 74.3853 18.7685L71.7156 21.1755C70.9255 20.911 70.0363 21.0863 69.4417 21.624C69.0346 21.9884 68.8065 22.4842 68.8085 23.0008C68.8087 23.5208 69.0339 24.0095 69.4428 24.3772C69.8477 24.7436 70.3988 24.9491 70.9732 24.9477C71.5478 24.949 72.0991 24.7436 72.5042 24.3772C72.9111 24.0128 73.1392 23.5173 73.1378 23.0008C73.1378 22.7996 73.1032 22.6032 73.0382 22.4166L75.7975 19.9345C76.1758 20.1695 76.5844 20.3674 77.0237 20.538C77.89 20.8749 78.8462 21.0802 79.8927 21.0802H80.0845C81.2414 21.0802 82.3328 20.8357 83.3587 20.3358C84.4398 19.8074 85.2859 19.0849 85.9251 18.1624C86.5677 17.2375 86.9216 16.2155 86.9216 15.0912V15.0351C86.9216 13.9291 86.6369 12.9086 86.039 11.9738ZM82.6676 17.1806C81.9187 17.9292 81.0578 18.3904 80.0845 18.3904H79.9242C79.3683 18.3904 78.8246 18.2522 78.2923 18.0009C77.6923 17.7241 77.2362 17.3294 76.863 16.8296C76.4772 16.3391 76.2679 15.8035 76.2679 15.2356V15.0631C76.2679 14.5048 76.3869 13.9754 76.6871 13.4755C77.008 12.9289 77.4415 12.504 78.0179 12.1661C78.5839 11.8305 79.1883 11.6659 79.8616 11.6659H79.9242C80.5346 11.6659 81.1125 11.7742 81.6579 12.0252C82.2136 12.2928 82.6676 12.6585 83.0196 13.1394C83.3614 13.6206 83.5648 14.1395 83.6302 14.7049C83.6405 14.8224 83.6457 14.9427 83.6457 15.0577C83.6457 15.825 83.3197 16.5356 82.6676 17.1806ZM32.7643 10.1783C33.8291 9.19812 34.9317 8.76825 36.5112 8.76825C40.0779 8.76825 43.1447 11.5634 43.1447 15.2188C43.1447 18.9212 39.8189 21.6691 36.0231 21.6691C32.6088 21.6691 29.5697 18.9694 29.5697 15.0273V4.4956H32.7643V10.1783ZM0 4.49561H3.35773V11.4918H10.4394V4.49561H13.8014V21.6691H10.4394V14.526H3.35773V21.6691H0V4.49561ZM24.4387 16.0754C24.4387 17.5131 23.1898 18.6829 21.6573 18.6829C20.1242 18.6829 18.876 17.5131 18.876 16.0754V8.68167H15.6917V16.0754C15.6917 19.1601 18.368 21.6691 21.6573 21.6691C24.9458 21.6691 27.6219 19.1601 27.6219 16.0754V8.68167H24.4387V16.0754ZM36.5906 18.8974C34.4259 18.8974 32.7705 17.2019 32.7705 15.2189C32.7705 13.2355 34.4259 11.5394 36.5906 11.5394C38.4248 11.5394 40.0811 13.2355 40.0811 15.2189C40.0811 17.2019 38.4248 18.8974 36.5906 18.8974ZM50.7517 7.53951C49.5802 7.53951 48.5102 8.01701 48.5102 9.52308C48.5102 10.6326 49.7105 10.9854 51.1581 11.4109C53.3571 12.0573 56.127 12.8715 56.127 16.7611C56.127 19.7478 53.4776 21.6591 50.1917 21.6591C48.0007 21.6591 46.1672 20.7986 44.6889 19.1022L47.0074 16.8569C47.0867 16.94 47.1638 17.0228 47.24 17.1045L47.2401 17.1046C47.9959 17.9153 48.6576 18.6251 50.3706 18.6251C51.5672 18.6251 52.6113 17.7403 52.6113 16.738C52.6113 15.3471 51.216 14.8885 49.6199 14.3639C47.4866 13.6628 44.9943 12.8437 44.9943 9.52308C44.9943 6.39312 47.4908 4.50569 50.9555 4.50569C52.6878 4.50569 54.8017 5.41377 55.8454 6.72757L53.7571 9.02088C52.9427 8.2084 51.6947 7.53951 50.7517 7.53951ZM64.5371 8.60001C61.1231 8.60001 58.0836 11.2981 58.0836 15.2411V25.7999H61.2781V20.0902C62.343 21.0697 63.445 21.5003 65.0252 21.5003C68.5917 21.5003 71.6588 18.7055 71.6588 15.0501C71.6588 11.3472 68.3321 8.60001 64.5371 8.60001ZM61.2847 15.05C61.2847 17.0317 62.9402 18.7295 65.1047 18.7295C66.9386 18.7295 68.5951 17.0317 68.5951 15.05C68.5951 13.0666 66.9386 11.3706 65.1047 11.3706C62.9402 11.3706 61.2847 13.0666 61.2847 15.05ZM95.1737 18.8974C93.2894 18.8974 92.7545 18.1332 92.7545 16.9622V11.7783H95.6834V9.15067H92.7545V5.68627L89.5204 7.04769V17.6072C89.5204 20.3071 91.5066 21.6691 94.231 21.6691C94.6386 21.6691 95.1997 21.6444 95.5057 21.5737L96.2954 18.8505C95.9388 18.8736 95.5314 18.8974 95.1737 18.8974Z" fill="#7F7F7F"/>
</svg>
