<svg width="38" height="38" viewBox="0 0 38 38" fill="none" xmlns="http://www.w3.org/2000/svg">
<g filter="url(#filter0_d_1_135)">
<rect x="3" y="2" width="32" height="32" rx="16" fill="white"/>
</g>
<path d="M24.3337 20.0597C24.2434 19.9137 24.0845 19.8242 23.9127 19.8227C20.6414 19.7587 18.0196 17.0947 18.0077 13.8227C18.0077 13.4126 18.0496 13.0034 18.1327 12.6017C18.1679 12.4327 18.1133 12.2575 17.9884 12.1383C17.8635 12.0191 17.6859 11.9728 17.5187 12.0157C14.8392 12.6984 12.9732 15.1238 13.0003 17.8888C13.0274 20.6538 14.9406 23.0422 17.633 23.6722C20.3254 24.3022 23.0996 23.0106 24.3507 20.5447C24.4292 20.391 24.4227 20.2076 24.3337 20.0597Z" fill="#191919"/>
<defs>
<filter id="filter0_d_1_135" x="0" y="0" width="38" height="38" filterUnits="userSpaceOnUse" color-interpolation-filters="sRGB">
<feFlood flood-opacity="0" result="BackgroundImageFix"/>
<feColorMatrix in="SourceAlpha" type="matrix" values="0 0 0 0 0 0 0 0 0 0 0 0 0 0 0 0 0 0 127 0" result="hardAlpha"/>
<feOffset dy="1"/>
<feGaussianBlur stdDeviation="1.5"/>
<feColorMatrix type="matrix" values="0 0 0 0 0.0980392 0 0 0 0 0.0980392 0 0 0 0 0.0980392 0 0 0 0.16 0"/>
<feBlend mode="normal" in2="BackgroundImageFix" result="effect1_dropShadow_1_135"/>
<feBlend mode="normal" in="SourceGraphic" in2="effect1_dropShadow_1_135" result="shape"/>
</filter>
</defs>
</svg>
