<svg width="768" height="460" viewBox="0 0 768 460" fill="none" xmlns="http://www.w3.org/2000/svg">
<rect width="768" height="432" fill="#191919"/>
<mask id="mask0_3_745" style="mask-type:alpha" maskUnits="userSpaceOnUse" x="0" y="0" width="768" height="432">
<rect width="768" height="432" fill="#191919"/>
</mask>
<g mask="url(#mask0_3_745)">
<circle cx="385" cy="218" r="128" fill="url(#paint0_linear_3_745)" fill-opacity="0.04"/>
<circle cx="385" cy="218" r="96" fill="url(#paint1_linear_3_745)" fill-opacity="0.16"/>
<g filter="url(#filter0_d_3_745)">
<circle cx="385" cy="218" r="64" fill="url(#paint2_radial_3_745)"/>
</g>
<path opacity="0.48" d="M91 371H631" stroke="url(#paint3_linear_3_745)"/>
<path opacity="0.48" d="M91 66H631" stroke="url(#paint4_linear_3_745)"/>
<path opacity="0.48" d="M545 -238V302" stroke="url(#paint5_linear_3_745)"/>
<path opacity="0.48" d="M225 134L225 674" stroke="url(#paint6_linear_3_745)"/>
<path opacity="0.48" d="M173.828 83.6562C173.964 85.6042 174.078 87.8594 174.172 90.4219C174.109 90.7448 173.859 90.9062 173.422 90.9062C173.307 90.9062 173.188 90.8854 173.062 90.8438C172.948 90.7917 172.875 90.724 172.844 90.6406V83.6562H173.828ZM172.375 81.5312C172.375 81.1667 172.589 80.9844 173.016 80.9844C173.297 80.9844 173.526 81.0469 173.703 81.1719C173.734 81.2865 173.75 81.401 173.75 81.5156C173.75 81.6198 173.708 81.724 173.625 81.8281C173.542 81.9323 173.417 81.9844 173.25 81.9844C173.083 81.9844 172.917 81.9479 172.75 81.875C172.583 81.7917 172.458 81.6771 172.375 81.5312ZM181.188 87.5781C181.188 86.3385 181.12 85.4271 180.984 84.8438C181.068 84.6875 180.943 84.6094 180.609 84.6094C180.255 84.6094 179.797 84.6979 179.234 84.875C178.672 85.0521 178.214 85.2292 177.859 85.4062C177.016 85.8125 176.547 86.2083 176.453 86.5938V90.8438H175.406C175.271 90.4896 175.203 89.4948 175.203 87.8594C175.203 86.401 175.229 85.3281 175.281 84.6406C175.344 83.9531 175.391 83.5625 175.422 83.4688C175.693 83.2917 175.911 83.2031 176.078 83.2031C176.339 83.2031 176.469 83.5104 176.469 84.125C176.469 84.3646 176.453 84.599 176.422 84.8281C176.401 85.0469 176.391 85.1979 176.391 85.2812C178.078 84.0417 179.385 83.4219 180.312 83.4219C181.365 83.4219 181.964 84.2708 182.109 85.9688C182.172 86.5625 182.203 87.3854 182.203 88.4375L182.188 89.6719C182.188 90.1302 182.198 90.5729 182.219 91C182.115 91.0625 182.031 91.0938 181.969 91.0938C181.938 91.0833 181.87 91.0677 181.766 91.0469C181.661 91.026 181.526 91.0104 181.359 91C181.255 90.5833 181.198 90.1615 181.188 89.7344C181.177 89.2969 181.172 88.8958 181.172 88.5312L181.188 87.5781ZM188.688 86.9688C189.833 86.9688 190.406 87.2604 190.406 87.8438C190.406 88.2812 190.089 88.7917 189.453 89.375C188.505 90.2396 187.229 90.9323 185.625 91.4531C185.552 91.4531 185.469 91.3802 185.375 91.2344C185.292 91.0885 185.224 90.9792 185.172 90.9062C185.13 90.8229 185.099 90.7708 185.078 90.75C186.276 90.3542 187.26 89.875 188.031 89.3125C188.552 88.9375 188.812 88.6302 188.812 88.3906C188.812 88.151 188.505 88.0312 187.891 88.0312C187.276 88.0312 186.375 88.1771 185.188 88.4688C184.646 88.4479 184.177 88.2552 183.781 87.8906C183.438 87.5677 183.266 87.2448 183.266 86.9219C183.266 86.5885 183.359 86.2865 183.547 86.0156C183.734 85.7344 183.984 85.474 184.297 85.2344C184.609 84.9948 184.974 84.776 185.391 84.5781C186.411 84.0885 187.469 83.8438 188.562 83.8438C188.885 83.8438 189.198 83.875 189.5 83.9375C189.75 83.9375 189.896 84.0469 189.938 84.2656C189.979 84.4844 190 84.8438 190 85.3438C189.385 85.0625 188.693 84.9219 187.922 84.9219C186.964 84.9219 186.172 85.1146 185.547 85.5C184.901 85.875 184.568 86.3646 184.547 86.9688C184.547 87.2604 184.76 87.4062 185.188 87.4062L186.328 87.2812C187.307 87.0729 188.094 86.9688 188.688 86.9688ZM194.812 89.9062C195.729 89.9062 197.109 89.4896 198.953 88.6562C199.068 88.6562 199.161 88.6979 199.234 88.7812C199.307 88.8542 199.344 88.9427 199.344 89.0469C198.927 89.7552 198.13 90.3073 196.953 90.7031C195.776 91.099 194.677 91.1667 193.656 90.9062C192.5 90.6042 191.797 89.9531 191.547 88.9531C191.526 88.7552 191.516 88.4896 191.516 88.1562C191.516 87.8229 191.599 87.3854 191.766 86.8438C191.943 86.2917 192.24 85.7708 192.656 85.2812C193.073 84.7917 193.562 84.4062 194.125 84.125C194.688 83.8438 195.286 83.7031 195.922 83.7031C196.526 83.7031 197.203 83.9115 197.953 84.3281C198.307 84.526 198.589 84.75 198.797 85C199.005 85.25 199.109 85.5052 199.109 85.7656C199.109 85.8385 199.104 85.9115 199.094 85.9844C199.073 86.6198 198.766 87.0208 198.172 87.1875C197.911 87.2604 197.609 87.2969 197.266 87.2969L195.016 87.2031C194.266 87.2031 193.693 87.3646 193.297 87.6875C193.068 87.8646 192.906 88.1302 192.812 88.4844C193.073 89.4323 193.74 89.9062 194.812 89.9062ZM197.594 85.0781C197.365 84.9115 197.125 84.7917 196.875 84.7188C196.625 84.6458 196.417 84.6094 196.25 84.6094C196.083 84.6094 195.812 84.6667 195.438 84.7812C195.062 84.8854 194.729 85.0052 194.438 85.1406C193.719 85.474 193.359 85.8229 193.359 86.1875C194.193 86.2604 194.818 86.2969 195.234 86.2969C196.391 86.2969 197.172 86.1979 197.578 86C197.828 85.8958 197.953 85.7656 197.953 85.6094C197.953 85.4219 197.833 85.2448 197.594 85.0781ZM208.203 85.2969C207.766 84.9844 207.203 84.8281 206.516 84.8281C205.87 84.8281 205.271 84.9479 204.719 85.1875C203.677 85.625 202.964 86.1875 202.578 86.875C202.411 87.1875 202.328 87.5208 202.328 87.875C202.328 87.9375 202.328 88.1146 202.328 88.4062C202.328 88.6875 202.38 89.0729 202.484 89.5625C202.589 90.0417 202.641 90.5312 202.641 91.0312C202.422 91.0417 202.245 91.0677 202.109 91.1094C201.974 91.151 201.859 91.1719 201.766 91.1719C201.672 91.1719 201.589 91.1302 201.516 91.0469C201.453 90.9635 201.38 90.8021 201.297 90.5625C201.286 90.5 201.266 90.3229 201.234 90.0312C201.203 89.7396 201.161 89.3854 201.109 88.9688C201.068 88.5521 201.016 88.099 200.953 87.6094C200.901 87.1094 200.849 86.6198 200.797 86.1406C200.682 85.099 200.594 84.3333 200.531 83.8438C200.531 83.5938 200.714 83.4688 201.078 83.4688C201.297 83.4688 201.469 83.5625 201.594 83.75C201.719 83.9271 201.818 84.1354 201.891 84.375C201.964 84.6042 202.01 84.8333 202.031 85.0625C202.062 85.2917 202.089 85.4531 202.109 85.5469C203.484 84.3177 205.193 83.7031 207.234 83.7031C207.464 83.7031 207.703 83.7083 207.953 83.7188C208.016 83.7083 208.094 83.7031 208.188 83.7031C208.281 83.7031 208.375 83.7656 208.469 83.8906C208.583 84.0365 208.641 84.2135 208.641 84.4219C208.641 84.9427 208.495 85.2344 208.203 85.2969ZM211.969 89.5L212 87C212 86.6042 211.964 86.2656 211.891 85.9844H209.469L209.438 84.9062H211.781V80.875C211.812 80.7812 211.875 80.6875 211.969 80.5938C212.115 80.4479 212.234 80.375 212.328 80.375C212.432 80.375 212.521 80.3854 212.594 80.4062C212.667 80.4271 212.745 80.5 212.828 80.625C212.995 81.3125 213.078 82.349 213.078 83.7344C213.078 84.0781 213.094 84.4167 213.125 84.75C213.458 84.7083 213.792 84.6875 214.125 84.6875C214.125 84.6875 214.396 84.6875 214.938 84.6875C215.135 84.6875 215.318 84.6771 215.484 84.6562L215.438 85.7812L213.156 85.7188L213.234 91.1094C213.047 91.1927 212.885 91.2344 212.75 91.2344C212.229 91.2344 211.969 90.6562 211.969 89.5ZM217.109 89.0312C217.109 88.875 217.177 88.724 217.312 88.5781C217.458 88.4323 217.62 88.3594 217.797 88.3594C217.974 88.3594 218.109 88.4167 218.203 88.5312C218.297 88.6458 218.344 88.7708 218.344 88.9062C218.344 89.0312 218.292 89.151 218.188 89.2656C218.094 89.3698 218.005 89.4219 217.922 89.4219C217.839 89.4219 217.76 89.4219 217.688 89.4219C217.625 89.4219 217.51 89.3958 217.344 89.3438C217.188 89.2917 217.109 89.1875 217.109 89.0312ZM216.609 86.0312C216.464 85.9896 216.391 85.9115 216.391 85.7969C216.391 85.6406 216.469 85.5104 216.625 85.4062C216.781 85.3021 216.906 85.2448 217 85.2344C217.323 85.276 217.526 85.3594 217.609 85.4844C217.703 85.599 217.75 85.6927 217.75 85.7656C217.75 85.9844 217.615 86.125 217.344 86.1875C217.302 86.2083 217.224 86.2188 217.109 86.2188C217.005 86.2188 216.839 86.1562 216.609 86.0312ZM232.219 89.3594C232.646 89.1823 233.062 89.0208 233.469 88.875C233.875 88.7292 234.26 88.6562 234.625 88.6562C235 88.6562 235.188 88.7708 235.188 89C235.188 89.0521 235.172 89.1354 235.141 89.25C235.12 89.3542 234.979 89.4844 234.719 89.6406C234.469 89.7865 234.156 89.9271 233.781 90.0625C233.417 90.1979 233.016 90.3229 232.578 90.4375C232.141 90.5521 231.714 90.651 231.297 90.7344C230.432 90.9115 229.818 91 229.453 91C229.089 91 228.693 90.9583 228.266 90.875C227.849 90.7917 227.458 90.6562 227.094 90.4688C226.25 90.0312 225.828 89.3854 225.828 88.5312C225.828 88.4688 225.828 88.3438 225.828 88.1562C225.828 87.9688 225.906 87.7031 226.062 87.3594C226.219 87.0052 226.453 86.6562 226.766 86.3125C227.078 85.9583 227.443 85.6354 227.859 85.3438C228.734 84.7188 229.651 84.3125 230.609 84.125C230.943 84.0521 231.219 84.0156 231.438 84.0156C231.667 84.0156 231.854 84.0208 232 84.0312C232.146 84.0312 232.297 84.0417 232.453 84.0625C232.609 84.0729 232.745 84.1094 232.859 84.1719C233.13 84.3073 233.266 84.5729 233.266 84.9688C233.266 85.2188 233.089 85.4635 232.734 85.7031C232.641 85.7656 232.557 85.8229 232.484 85.875C232.432 85.6354 232.365 85.4323 232.281 85.2656C232.198 85.099 232.016 85.0156 231.734 85.0156C230.505 85.276 229.448 85.6667 228.562 86.1875C227.562 86.7812 227.062 87.4062 227.062 88.0625C227.062 88.1354 227.068 88.2135 227.078 88.2969C227.078 88.9635 227.333 89.4375 227.844 89.7188C228.229 89.9271 228.724 90.0312 229.328 90.0312C229.943 90.0312 230.474 89.9635 230.922 89.8281C231.37 89.6823 231.802 89.526 232.219 89.3594ZM237.688 83.6562C237.823 85.6042 237.938 87.8594 238.031 90.4219C237.969 90.7448 237.719 90.9062 237.281 90.9062C237.167 90.9062 237.047 90.8854 236.922 90.8438C236.807 90.7917 236.734 90.724 236.703 90.6406V83.6562H237.688ZM236.234 81.5312C236.234 81.1667 236.448 80.9844 236.875 80.9844C237.156 80.9844 237.385 81.0469 237.562 81.1719C237.594 81.2865 237.609 81.401 237.609 81.5156C237.609 81.6198 237.568 81.724 237.484 81.8281C237.401 81.9323 237.276 81.9844 237.109 81.9844C236.943 81.9844 236.776 81.9479 236.609 81.875C236.443 81.7917 236.318 81.6771 236.234 81.5312ZM246.625 85.2969C246.188 84.9844 245.625 84.8281 244.938 84.8281C244.292 84.8281 243.693 84.9479 243.141 85.1875C242.099 85.625 241.385 86.1875 241 86.875C240.833 87.1875 240.75 87.5208 240.75 87.875C240.75 87.9375 240.75 88.1146 240.75 88.4062C240.75 88.6875 240.802 89.0729 240.906 89.5625C241.01 90.0417 241.062 90.5312 241.062 91.0312C240.844 91.0417 240.667 91.0677 240.531 91.1094C240.396 91.151 240.281 91.1719 240.188 91.1719C240.094 91.1719 240.01 91.1302 239.938 91.0469C239.875 90.9635 239.802 90.8021 239.719 90.5625C239.708 90.5 239.688 90.3229 239.656 90.0312C239.625 89.7396 239.583 89.3854 239.531 88.9688C239.49 88.5521 239.438 88.099 239.375 87.6094C239.323 87.1094 239.271 86.6198 239.219 86.1406C239.104 85.099 239.016 84.3333 238.953 83.8438C238.953 83.5938 239.135 83.4688 239.5 83.4688C239.719 83.4688 239.891 83.5625 240.016 83.75C240.141 83.9271 240.24 84.1354 240.312 84.375C240.385 84.6042 240.432 84.8333 240.453 85.0625C240.484 85.2917 240.51 85.4531 240.531 85.5469C241.906 84.3177 243.615 83.7031 245.656 83.7031C245.885 83.7031 246.125 83.7083 246.375 83.7188C246.438 83.7083 246.516 83.7031 246.609 83.7031C246.703 83.7031 246.797 83.7656 246.891 83.8906C247.005 84.0365 247.062 84.2135 247.062 84.4219C247.062 84.9427 246.917 85.2344 246.625 85.2969ZM254.344 89.3594C254.771 89.1823 255.188 89.0208 255.594 88.875C256 88.7292 256.385 88.6562 256.75 88.6562C257.125 88.6562 257.312 88.7708 257.312 89C257.312 89.0521 257.297 89.1354 257.266 89.25C257.245 89.3542 257.104 89.4844 256.844 89.6406C256.594 89.7865 256.281 89.9271 255.906 90.0625C255.542 90.1979 255.141 90.3229 254.703 90.4375C254.266 90.5521 253.839 90.651 253.422 90.7344C252.557 90.9115 251.943 91 251.578 91C251.214 91 250.818 90.9583 250.391 90.875C249.974 90.7917 249.583 90.6562 249.219 90.4688C248.375 90.0312 247.953 89.3854 247.953 88.5312C247.953 88.4688 247.953 88.3438 247.953 88.1562C247.953 87.9688 248.031 87.7031 248.188 87.3594C248.344 87.0052 248.578 86.6562 248.891 86.3125C249.203 85.9583 249.568 85.6354 249.984 85.3438C250.859 84.7188 251.776 84.3125 252.734 84.125C253.068 84.0521 253.344 84.0156 253.562 84.0156C253.792 84.0156 253.979 84.0208 254.125 84.0312C254.271 84.0312 254.422 84.0417 254.578 84.0625C254.734 84.0729 254.87 84.1094 254.984 84.1719C255.255 84.3073 255.391 84.5729 255.391 84.9688C255.391 85.2188 255.214 85.4635 254.859 85.7031C254.766 85.7656 254.682 85.8229 254.609 85.875C254.557 85.6354 254.49 85.4323 254.406 85.2656C254.323 85.099 254.141 85.0156 253.859 85.0156C252.63 85.276 251.573 85.6667 250.688 86.1875C249.688 86.7812 249.188 87.4062 249.188 88.0625C249.188 88.1354 249.193 88.2135 249.203 88.2969C249.203 88.9635 249.458 89.4375 249.969 89.7188C250.354 89.9271 250.849 90.0312 251.453 90.0312C252.068 90.0312 252.599 89.9635 253.047 89.8281C253.495 89.6823 253.927 89.526 254.344 89.3594ZM258.688 84.9375C258.667 84.375 258.646 83.875 258.625 83.4375C258.604 82.9896 258.589 82.6615 258.578 82.4531C258.578 82.2344 258.495 81.7083 258.328 80.875C258.422 80.75 258.51 80.6302 258.594 80.5156C258.688 80.401 258.818 80.3438 258.984 80.3438C259.349 80.3438 259.63 81.8802 259.828 84.9531C259.932 86.7344 259.984 88.5156 259.984 90.2969C259.984 90.776 259.651 91.0156 258.984 91.0156L258.859 91C258.859 90.4583 258.844 89.7656 258.812 88.9219C258.781 88.0781 258.755 87.3438 258.734 86.7188C258.724 86.0938 258.708 85.5 258.688 84.9375ZM264.359 89.9062C265.276 89.9062 266.656 89.4896 268.5 88.6562C268.615 88.6562 268.708 88.6979 268.781 88.7812C268.854 88.8542 268.891 88.9427 268.891 89.0469C268.474 89.7552 267.677 90.3073 266.5 90.7031C265.323 91.099 264.224 91.1667 263.203 90.9062C262.047 90.6042 261.344 89.9531 261.094 88.9531C261.073 88.7552 261.062 88.4896 261.062 88.1562C261.062 87.8229 261.146 87.3854 261.312 86.8438C261.49 86.2917 261.786 85.7708 262.203 85.2812C262.62 84.7917 263.109 84.4062 263.672 84.125C264.234 83.8438 264.833 83.7031 265.469 83.7031C266.073 83.7031 266.75 83.9115 267.5 84.3281C267.854 84.526 268.135 84.75 268.344 85C268.552 85.25 268.656 85.5052 268.656 85.7656C268.656 85.8385 268.651 85.9115 268.641 85.9844C268.62 86.6198 268.312 87.0208 267.719 87.1875C267.458 87.2604 267.156 87.2969 266.812 87.2969L264.562 87.2031C263.812 87.2031 263.24 87.3646 262.844 87.6875C262.615 87.8646 262.453 88.1302 262.359 88.4844C262.62 89.4323 263.286 89.9062 264.359 89.9062ZM267.141 85.0781C266.911 84.9115 266.672 84.7917 266.422 84.7188C266.172 84.6458 265.964 84.6094 265.797 84.6094C265.63 84.6094 265.359 84.6667 264.984 84.7812C264.609 84.8854 264.276 85.0052 263.984 85.1406C263.266 85.474 262.906 85.8229 262.906 86.1875C263.74 86.2604 264.365 86.2969 264.781 86.2969C265.938 86.2969 266.719 86.1979 267.125 86C267.375 85.8958 267.5 85.7656 267.5 85.6094C267.5 85.4219 267.38 85.2448 267.141 85.0781Z" fill="white"/>
<path opacity="0.48" d="M512.438 355.75C512.438 355.552 512.443 355.245 512.453 354.828C512.474 354.401 512.49 353.922 512.5 353.391C512.521 352.859 512.542 352.302 512.562 351.719C512.583 351.135 512.599 350.578 512.609 350.047C512.63 349.516 512.646 349.042 512.656 348.625C512.667 348.208 512.677 347.896 512.688 347.688C512.667 347.458 512.708 347.312 512.812 347.25C512.917 347.188 513.031 347.156 513.156 347.156C513.292 347.156 513.406 347.167 513.5 347.188C513.604 347.208 513.677 347.292 513.719 347.438L513.469 355.469C513.448 355.656 513.302 355.792 513.031 355.875C512.76 355.948 512.562 355.906 512.438 355.75ZM522.703 353.391C523.047 353.391 523.219 353.521 523.219 353.781C523.219 354.042 523.104 354.234 522.875 354.359C522.646 354.474 522.385 354.557 522.094 354.609C521.812 354.661 521.547 354.693 521.297 354.703C521.047 354.703 520.885 354.714 520.812 354.734C520.75 354.745 520.599 354.786 520.359 354.859C520.13 354.922 519.854 355 519.531 355.094C519.208 355.177 518.859 355.271 518.484 355.375C517.307 355.688 516.37 355.844 515.672 355.844C515.318 355.844 515.078 355.792 514.953 355.688C514.839 355.573 514.818 355.417 514.891 355.219C515.672 354.531 516.484 353.646 517.328 352.562C518.589 350.948 519.219 349.688 519.219 348.781C519.219 348.604 519.193 348.438 519.141 348.281C519.026 347.958 518.729 347.75 518.25 347.656C517.792 347.656 517.417 347.75 517.125 347.938C516.833 348.125 516.557 348.333 516.297 348.562C516.047 348.792 515.786 349 515.516 349.188C515.255 349.375 514.932 349.469 514.547 349.469C514.557 349.125 514.698 348.792 514.969 348.469C515.51 347.802 516.276 347.323 517.266 347.031C517.62 346.917 517.901 346.859 518.109 346.859C518.318 346.859 518.474 346.865 518.578 346.875C518.984 346.917 519.333 347.062 519.625 347.312C519.917 347.562 520.089 347.948 520.141 348.469C520.141 349.938 519.453 351.568 518.078 353.359C517.703 353.849 517.333 354.302 516.969 354.719C517.083 354.729 517.26 354.734 517.5 354.734C517.75 354.734 518.089 354.677 518.516 354.562C518.943 354.438 519.396 354.292 519.875 354.125C520.354 353.948 520.828 353.781 521.297 353.625C521.766 353.469 522.234 353.391 522.703 353.391ZM531.828 346.781C532.151 346.885 532.406 347.042 532.594 347.25C532.792 347.448 532.885 347.776 532.875 348.234C532.865 348.693 532.604 349.208 532.094 349.781C532.698 350.021 533.083 350.24 533.25 350.438C533.417 350.635 533.526 350.844 533.578 351.062C533.641 351.271 533.672 351.531 533.672 351.844C533.672 352.552 533.484 353.172 533.109 353.703C532.745 354.224 532.281 354.656 531.719 355C531.156 355.344 530.536 355.599 529.859 355.766C529.193 355.932 528.615 356.016 528.125 356.016C527.635 356.016 527.161 355.984 526.703 355.922C526.255 355.849 525.833 355.724 525.438 355.547C524.51 355.13 524.047 354.505 524.047 353.672C524.047 353.411 524.13 353.156 524.297 352.906C524.464 352.646 524.641 352.401 524.828 352.172C525.026 351.943 525.208 351.729 525.375 351.531C525.542 351.323 525.625 351.146 525.625 351C525.625 350.844 525.594 350.719 525.531 350.625C525.479 350.521 525.417 350.422 525.344 350.328C525.156 350.089 525.062 349.823 525.062 349.531C525.062 349.24 525.146 348.948 525.312 348.656C525.479 348.365 525.698 348.109 525.969 347.891C526.25 347.661 526.568 347.469 526.922 347.312C527.276 347.146 527.635 347.01 528 346.906C528.708 346.719 529.385 346.625 530.031 346.625C530.917 346.625 531.516 346.677 531.828 346.781ZM525.312 353.5C525.312 354.198 525.667 354.688 526.375 354.969C526.865 355.156 527.453 355.25 528.141 355.25C528.828 355.25 529.432 355.177 529.953 355.031C530.474 354.885 530.932 354.667 531.328 354.375C532.214 353.74 532.656 352.885 532.656 351.812C532.406 350.969 531.62 350.547 530.297 350.547C529.38 350.547 528.469 350.75 527.562 351.156C526.698 351.552 526.068 352.026 525.672 352.578C525.464 352.87 525.344 353.177 525.312 353.5ZM531.594 347.656C531.146 347.458 530.589 347.359 529.922 347.359C528.474 347.359 527.422 347.719 526.766 348.438C526.536 348.688 526.401 348.99 526.359 349.344C526.359 349.656 526.458 349.896 526.656 350.062C526.854 350.219 527.109 350.297 527.422 350.297C527.474 350.307 527.552 350.312 527.656 350.312C527.771 350.312 527.953 350.292 528.203 350.25C528.453 350.198 528.745 350.125 529.078 350.031C529.411 349.938 529.745 349.828 530.078 349.703C530.422 349.568 530.734 349.427 531.016 349.281C531.641 348.948 532.005 348.641 532.109 348.359C532.109 348.182 532.068 348.021 531.984 347.875C531.901 347.729 531.771 347.656 531.594 347.656ZM541.391 355.531C541.901 355.021 542.417 354.438 542.938 353.781C543.458 353.125 543.776 352.688 543.891 352.469L542.578 351.031C542.411 350.854 542.25 350.677 542.094 350.5C541.938 350.323 541.797 350.167 541.672 350.031C541.547 349.896 541.448 349.781 541.375 349.688L541.266 349.562L542.172 348.594C542.641 349.167 542.984 349.604 543.203 349.906C543.432 350.198 543.615 350.432 543.75 350.609C543.979 350.901 544.312 351.26 544.75 351.688C544.896 351.479 545.156 351.104 545.531 350.562C546.156 349.635 546.656 348.948 547.031 348.5C547.271 348.5 547.464 348.583 547.609 348.75C547.755 348.917 547.828 349.073 547.828 349.219C547.557 349.802 547.167 350.417 546.656 351.062C546.469 351.292 546.297 351.516 546.141 351.734C545.984 351.943 545.859 352.172 545.766 352.422C546.401 352.87 547.161 353.63 548.047 354.703C548.245 354.943 548.385 355.125 548.469 355.25C548.469 355.323 548.411 355.432 548.297 355.578C548.12 355.828 547.964 355.984 547.828 356.047C547.63 355.953 547.422 355.786 547.203 355.547C546.995 355.297 546.771 355.026 546.531 354.734C546.292 354.443 546.042 354.151 545.781 353.859C545.531 353.568 545.266 353.328 544.984 353.141C544.745 353.411 544.411 353.802 543.984 354.312C543.203 355.25 542.682 355.812 542.422 356C542.224 356.042 541.943 355.948 541.578 355.719C541.484 355.667 541.422 355.604 541.391 355.531ZM555.859 355.75C555.859 355.552 555.865 355.245 555.875 354.828C555.896 354.401 555.911 353.922 555.922 353.391C555.943 352.859 555.964 352.302 555.984 351.719C556.005 351.135 556.021 350.578 556.031 350.047C556.052 349.516 556.068 349.042 556.078 348.625C556.089 348.208 556.099 347.896 556.109 347.688C556.089 347.458 556.13 347.312 556.234 347.25C556.339 347.188 556.453 347.156 556.578 347.156C556.714 347.156 556.828 347.167 556.922 347.188C557.026 347.208 557.099 347.292 557.141 347.438L556.891 355.469C556.87 355.656 556.724 355.792 556.453 355.875C556.182 355.948 555.984 355.906 555.859 355.75ZM566.125 353.391C566.469 353.391 566.641 353.521 566.641 353.781C566.641 354.042 566.526 354.234 566.297 354.359C566.068 354.474 565.807 354.557 565.516 354.609C565.234 354.661 564.969 354.693 564.719 354.703C564.469 354.703 564.307 354.714 564.234 354.734C564.172 354.745 564.021 354.786 563.781 354.859C563.552 354.922 563.276 355 562.953 355.094C562.63 355.177 562.281 355.271 561.906 355.375C560.729 355.688 559.792 355.844 559.094 355.844C558.74 355.844 558.5 355.792 558.375 355.688C558.26 355.573 558.24 355.417 558.312 355.219C559.094 354.531 559.906 353.646 560.75 352.562C562.01 350.948 562.641 349.688 562.641 348.781C562.641 348.604 562.615 348.438 562.562 348.281C562.448 347.958 562.151 347.75 561.672 347.656C561.214 347.656 560.839 347.75 560.547 347.938C560.255 348.125 559.979 348.333 559.719 348.562C559.469 348.792 559.208 349 558.938 349.188C558.677 349.375 558.354 349.469 557.969 349.469C557.979 349.125 558.12 348.792 558.391 348.469C558.932 347.802 559.698 347.323 560.688 347.031C561.042 346.917 561.323 346.859 561.531 346.859C561.74 346.859 561.896 346.865 562 346.875C562.406 346.917 562.755 347.062 563.047 347.312C563.339 347.562 563.51 347.948 563.562 348.469C563.562 349.938 562.875 351.568 561.5 353.359C561.125 353.849 560.755 354.302 560.391 354.719C560.505 354.729 560.682 354.734 560.922 354.734C561.172 354.734 561.51 354.677 561.938 354.562C562.365 354.438 562.818 354.292 563.297 354.125C563.776 353.948 564.25 353.781 564.719 353.625C565.188 353.469 565.656 353.391 566.125 353.391ZM575.25 346.781C575.573 346.885 575.828 347.042 576.016 347.25C576.214 347.448 576.307 347.776 576.297 348.234C576.286 348.693 576.026 349.208 575.516 349.781C576.12 350.021 576.505 350.24 576.672 350.438C576.839 350.635 576.948 350.844 577 351.062C577.062 351.271 577.094 351.531 577.094 351.844C577.094 352.552 576.906 353.172 576.531 353.703C576.167 354.224 575.703 354.656 575.141 355C574.578 355.344 573.958 355.599 573.281 355.766C572.615 355.932 572.036 356.016 571.547 356.016C571.057 356.016 570.583 355.984 570.125 355.922C569.677 355.849 569.255 355.724 568.859 355.547C567.932 355.13 567.469 354.505 567.469 353.672C567.469 353.411 567.552 353.156 567.719 352.906C567.885 352.646 568.062 352.401 568.25 352.172C568.448 351.943 568.63 351.729 568.797 351.531C568.964 351.323 569.047 351.146 569.047 351C569.047 350.844 569.016 350.719 568.953 350.625C568.901 350.521 568.839 350.422 568.766 350.328C568.578 350.089 568.484 349.823 568.484 349.531C568.484 349.24 568.568 348.948 568.734 348.656C568.901 348.365 569.12 348.109 569.391 347.891C569.672 347.661 569.99 347.469 570.344 347.312C570.698 347.146 571.057 347.01 571.422 346.906C572.13 346.719 572.807 346.625 573.453 346.625C574.339 346.625 574.938 346.677 575.25 346.781ZM568.734 353.5C568.734 354.198 569.089 354.688 569.797 354.969C570.286 355.156 570.875 355.25 571.562 355.25C572.25 355.25 572.854 355.177 573.375 355.031C573.896 354.885 574.354 354.667 574.75 354.375C575.635 353.74 576.078 352.885 576.078 351.812C575.828 350.969 575.042 350.547 573.719 350.547C572.802 350.547 571.891 350.75 570.984 351.156C570.12 351.552 569.49 352.026 569.094 352.578C568.885 352.87 568.766 353.177 568.734 353.5ZM575.016 347.656C574.568 347.458 574.01 347.359 573.344 347.359C571.896 347.359 570.844 347.719 570.188 348.438C569.958 348.688 569.823 348.99 569.781 349.344C569.781 349.656 569.88 349.896 570.078 350.062C570.276 350.219 570.531 350.297 570.844 350.297C570.896 350.307 570.974 350.312 571.078 350.312C571.193 350.312 571.375 350.292 571.625 350.25C571.875 350.198 572.167 350.125 572.5 350.031C572.833 349.938 573.167 349.828 573.5 349.703C573.844 349.568 574.156 349.427 574.438 349.281C575.062 348.948 575.427 348.641 575.531 348.359C575.531 348.182 575.49 348.021 575.406 347.875C575.323 347.729 575.193 347.656 575.016 347.656Z" fill="white"/>
<g filter="url(#filter1_d_3_745)">
<circle cx="538" cy="159" r="40" transform="rotate(35 538 159)" fill="#FBFBFB"/>
</g>
<path fill-rule="evenodd" clip-rule="evenodd" d="M547.177 145.894C539.968 140.846 529.941 142.614 524.893 149.823C520.821 155.639 521.148 163.192 525.104 168.526C525.702 169.067 526.177 168.911 526.464 168.502C526.693 168.174 527.267 167.355 528.012 166.29C523.753 164.528 524.793 161.472 524.793 161.472C525.252 159.596 524.638 158.556 524.638 158.556C523.983 156.876 525.294 157.794 525.294 157.794C526.547 158.794 526.424 160.539 526.424 160.539C526.194 163.308 528.48 164.053 529.528 164.299C530.184 163.538 530.995 163.251 531.552 163.153C528.832 160.76 526.604 157.491 530.103 152.494C531.078 151.102 532.43 150.217 533.88 149.89C533.946 149.447 534.454 147.85 536.453 146.564C536.453 146.564 537.747 146.982 539.14 150.398C540.434 150.816 541.556 151.48 542.703 152.283C543.85 153.086 544.8 153.996 545.693 154.987C549.437 155.045 550.272 156.118 550.272 156.118C549.748 158.436 548.338 159.403 548.027 159.673C548.215 161.148 547.904 162.639 546.871 164.113C543.373 169.11 539.539 168.135 536.36 166.398C536.565 167.151 536.401 168.257 535.541 169.486C534.336 171.206 533.304 172.681 533.017 173.09C532.787 173.418 532.746 173.999 533.459 174.376C539.824 176.27 547.034 173.993 551.106 168.177C556.154 160.969 554.386 150.941 547.177 145.894Z" fill="#333333"/>
<g filter="url(#filter2_d_3_745)">
<circle cx="229" cy="295" r="33" transform="rotate(45 229 295)" fill="#0070F4"/>
</g>
<path d="M236.778 287.222L233.243 290.757" stroke="#DFDFDF" stroke-width="2" stroke-linecap="square"/>
<path d="M224.757 299.243L221.222 302.778" stroke="#DFDFDF" stroke-width="2" stroke-linecap="square"/>
<circle cx="229" cy="295" r="6" transform="rotate(45 229 295)" stroke="white" stroke-width="2" stroke-linecap="square"/>
<path d="M499.769 255.494C499.32 255.172 499.218 254.547 499.54 254.098L504.787 246.787C505.109 246.338 505.734 246.235 506.183 246.557C506.632 246.879 506.734 247.504 506.412 247.953L501.748 254.452L508.247 259.117C508.696 259.439 508.798 260.064 508.476 260.512C508.154 260.961 507.529 261.064 507.081 260.742L499.769 255.494ZM588.765 186.717C589.692 187.091 589.692 187.092 589.692 187.093C589.691 187.093 589.691 187.094 589.691 187.096C589.69 187.098 589.688 187.101 589.687 187.105C589.683 187.113 589.679 187.125 589.673 187.14C589.66 187.169 589.642 187.213 589.618 187.269C589.571 187.383 589.5 187.549 589.405 187.764C589.216 188.196 588.931 188.826 588.547 189.629C587.778 191.235 586.609 193.536 585.002 196.326C581.789 201.906 576.821 209.454 569.798 217.339C555.748 233.113 533.451 250.255 500.514 255.668L500.19 253.695C532.566 248.374 554.476 231.534 568.304 216.009C575.22 208.245 580.109 200.814 583.269 195.328C584.848 192.586 585.994 190.331 586.743 188.765C587.118 187.983 587.393 187.373 587.574 186.961C587.664 186.754 587.731 186.598 587.775 186.494C587.797 186.442 587.813 186.403 587.823 186.378C587.829 186.365 587.832 186.356 587.835 186.35C587.836 186.347 587.837 186.345 587.837 186.344C587.838 186.343 587.838 186.343 587.838 186.343C587.838 186.343 587.838 186.343 588.765 186.717Z" fill="url(#paint7_linear_3_745)"/>
<path d="M254.836 211.241C255.321 211.506 255.499 212.113 255.234 212.598L250.916 220.495C250.651 220.979 250.044 221.157 249.559 220.892C249.075 220.627 248.897 220.02 249.161 219.535L252.999 212.516L245.98 208.678C245.495 208.413 245.317 207.805 245.582 207.321C245.847 206.836 246.455 206.658 246.939 206.923L254.836 211.241ZM174.885 290.351C173.919 290.092 173.919 290.092 173.92 290.091C173.92 290.09 173.92 290.089 173.92 290.088C173.921 290.085 173.922 290.082 173.923 290.078C173.925 290.069 173.929 290.058 173.933 290.042C173.942 290.011 173.954 289.966 173.971 289.907C174.004 289.788 174.054 289.615 174.122 289.389C174.257 288.938 174.463 288.278 174.747 287.434C175.314 285.746 176.195 283.32 177.449 280.355C179.959 274.425 183.969 266.328 189.979 257.645C202.002 240.277 222.043 220.545 254.075 211.159L254.638 213.078C223.151 222.304 203.457 241.689 191.624 258.783C185.706 267.332 181.758 275.304 179.291 281.134C178.058 284.049 177.196 286.426 176.643 288.071C176.366 288.894 176.167 289.533 176.038 289.964C175.973 290.18 175.926 290.343 175.895 290.452C175.88 290.506 175.868 290.547 175.861 290.573C175.858 290.586 175.855 290.596 175.853 290.602C175.852 290.605 175.852 290.607 175.852 290.608C175.851 290.609 175.851 290.609 175.851 290.609C175.851 290.609 175.851 290.609 174.885 290.351Z" fill="url(#paint8_linear_3_745)"/>
</g>
<g clip-path="url(#clip0_3_745)">
<g filter="url(#filter3_d_3_745)">
<rect x="246" y="404" width="276" height="56" rx="28" fill="white"/>
</g>
<path d="M301.557 438L298.33 426.364H300.176L302.443 435.375H302.551L304.909 426.364H306.739L309.097 435.381H309.205L311.466 426.364H313.318L310.085 438H308.318L305.869 429.284H305.778L303.33 438H301.557ZM316.213 438.193C315.66 438.193 315.16 438.091 314.713 437.886C314.266 437.678 313.912 437.377 313.651 436.983C313.393 436.589 313.264 436.106 313.264 435.534C313.264 435.042 313.359 434.636 313.548 434.318C313.738 434 313.993 433.748 314.315 433.562C314.637 433.377 314.997 433.237 315.395 433.142C315.793 433.047 316.198 432.975 316.611 432.926C317.134 432.866 317.558 432.816 317.884 432.778C318.209 432.737 318.446 432.67 318.594 432.58C318.741 432.489 318.815 432.341 318.815 432.136V432.097C318.815 431.6 318.675 431.216 318.395 430.943C318.118 430.67 317.705 430.534 317.156 430.534C316.584 430.534 316.134 430.661 315.804 430.915C315.478 431.165 315.253 431.443 315.128 431.75L313.531 431.386C313.721 430.856 313.997 430.428 314.361 430.102C314.728 429.773 315.151 429.534 315.628 429.386C316.105 429.235 316.607 429.159 317.134 429.159C317.482 429.159 317.851 429.201 318.241 429.284C318.635 429.364 319.003 429.511 319.344 429.727C319.688 429.943 319.971 430.252 320.19 430.653C320.41 431.051 320.52 431.568 320.52 432.205V438H318.861V436.807H318.793C318.683 437.027 318.518 437.242 318.298 437.455C318.079 437.667 317.796 437.843 317.452 437.983C317.107 438.123 316.694 438.193 316.213 438.193ZM316.582 436.83C317.052 436.83 317.454 436.737 317.787 436.551C318.124 436.366 318.38 436.123 318.554 435.824C318.732 435.521 318.821 435.197 318.821 434.852V433.727C318.76 433.788 318.643 433.845 318.469 433.898C318.298 433.947 318.103 433.991 317.884 434.028C317.664 434.062 317.45 434.095 317.241 434.125C317.033 434.152 316.859 434.174 316.719 434.193C316.389 434.235 316.088 434.305 315.815 434.403C315.546 434.502 315.33 434.644 315.168 434.83C315.009 435.011 314.929 435.254 314.929 435.557C314.929 435.977 315.084 436.295 315.395 436.511C315.705 436.723 316.101 436.83 316.582 436.83ZM326.607 429.273V430.636H321.839V429.273H326.607ZM323.118 427.182H324.817V435.438C324.817 435.767 324.866 436.015 324.964 436.182C325.063 436.345 325.19 436.456 325.345 436.517C325.504 436.574 325.677 436.602 325.862 436.602C325.999 436.602 326.118 436.593 326.22 436.574C326.322 436.555 326.402 436.54 326.459 436.528L326.766 437.932C326.667 437.97 326.527 438.008 326.345 438.045C326.163 438.087 325.936 438.11 325.663 438.114C325.216 438.121 324.8 438.042 324.413 437.875C324.027 437.708 323.714 437.451 323.476 437.102C323.237 436.754 323.118 436.316 323.118 435.79V427.182ZM331.818 438.176C330.973 438.176 330.246 437.985 329.636 437.602C329.03 437.216 328.564 436.684 328.239 436.006C327.913 435.328 327.75 434.551 327.75 433.676C327.75 432.79 327.917 432.008 328.25 431.33C328.583 430.648 329.053 430.116 329.659 429.733C330.265 429.35 330.979 429.159 331.801 429.159C332.464 429.159 333.055 429.282 333.574 429.528C334.093 429.771 334.511 430.112 334.83 430.551C335.152 430.991 335.343 431.504 335.403 432.091H333.75C333.659 431.682 333.451 431.33 333.125 431.034C332.803 430.739 332.371 430.591 331.83 430.591C331.356 430.591 330.941 430.716 330.585 430.966C330.233 431.212 329.958 431.564 329.761 432.023C329.564 432.477 329.466 433.015 329.466 433.636C329.466 434.273 329.563 434.822 329.756 435.284C329.949 435.746 330.222 436.104 330.574 436.358C330.93 436.612 331.348 436.739 331.83 436.739C332.152 436.739 332.443 436.68 332.705 436.562C332.97 436.441 333.191 436.269 333.369 436.045C333.551 435.822 333.678 435.553 333.75 435.239H335.403C335.343 435.803 335.159 436.307 334.852 436.75C334.545 437.193 334.134 437.542 333.619 437.795C333.108 438.049 332.508 438.176 331.818 438.176ZM338.669 432.818V438H336.97V426.364H338.646V430.693H338.754C338.959 430.223 339.271 429.85 339.692 429.574C340.112 429.297 340.661 429.159 341.339 429.159C341.938 429.159 342.461 429.282 342.908 429.528C343.358 429.775 343.707 430.142 343.953 430.631C344.203 431.116 344.328 431.722 344.328 432.449V438H342.629V432.653C342.629 432.013 342.464 431.517 342.135 431.165C341.805 430.809 341.347 430.631 340.76 430.631C340.358 430.631 339.999 430.716 339.68 430.886C339.366 431.057 339.118 431.307 338.936 431.636C338.758 431.962 338.669 432.356 338.669 432.818ZM354.403 429.273V430.636H349.636V429.273H354.403ZM350.915 427.182H352.614V435.438C352.614 435.767 352.663 436.015 352.761 436.182C352.86 436.345 352.987 436.456 353.142 436.517C353.301 436.574 353.473 436.602 353.659 436.602C353.795 436.602 353.915 436.593 354.017 436.574C354.119 436.555 354.199 436.54 354.256 436.528L354.562 437.932C354.464 437.97 354.324 438.008 354.142 438.045C353.96 438.087 353.733 438.11 353.46 438.114C353.013 438.121 352.597 438.042 352.21 437.875C351.824 437.708 351.511 437.451 351.273 437.102C351.034 436.754 350.915 436.316 350.915 435.79V427.182ZM357.919 432.818V438H356.22V426.364H357.896V430.693H358.004C358.209 430.223 358.521 429.85 358.942 429.574C359.362 429.297 359.911 429.159 360.589 429.159C361.188 429.159 361.711 429.282 362.158 429.528C362.608 429.775 362.957 430.142 363.203 430.631C363.453 431.116 363.578 431.722 363.578 432.449V438H361.879V432.653C361.879 432.013 361.714 431.517 361.385 431.165C361.055 430.809 360.597 430.631 360.01 430.631C359.608 430.631 359.249 430.716 358.93 430.886C358.616 431.057 358.368 431.307 358.186 431.636C358.008 431.962 357.919 432.356 357.919 432.818ZM369.357 438.176C368.497 438.176 367.756 437.992 367.135 437.625C366.518 437.254 366.04 436.733 365.703 436.062C365.37 435.388 365.203 434.598 365.203 433.693C365.203 432.799 365.37 432.011 365.703 431.33C366.04 430.648 366.51 430.116 367.112 429.733C367.718 429.35 368.427 429.159 369.237 429.159C369.73 429.159 370.207 429.241 370.669 429.403C371.131 429.566 371.546 429.822 371.913 430.17C372.281 430.519 372.571 430.972 372.783 431.528C372.995 432.081 373.101 432.754 373.101 433.545V434.148H366.163V432.875H371.436C371.436 432.428 371.345 432.032 371.163 431.688C370.982 431.339 370.726 431.064 370.396 430.864C370.071 430.663 369.688 430.562 369.249 430.562C368.771 430.562 368.355 430.68 367.999 430.915C367.646 431.146 367.374 431.449 367.18 431.824C366.991 432.195 366.896 432.598 366.896 433.034V434.028C366.896 434.612 366.999 435.108 367.203 435.517C367.411 435.926 367.701 436.239 368.072 436.455C368.444 436.667 368.877 436.773 369.374 436.773C369.696 436.773 369.989 436.727 370.254 436.636C370.519 436.542 370.749 436.402 370.942 436.216C371.135 436.03 371.283 435.801 371.385 435.528L372.993 435.818C372.864 436.292 372.633 436.706 372.3 437.062C371.97 437.415 371.555 437.689 371.055 437.886C370.559 438.08 369.993 438.176 369.357 438.176ZM382.874 429.273V430.636H377.942V429.273H382.874ZM379.294 438V428.261C379.294 427.716 379.413 427.263 379.652 426.903C379.891 426.54 380.207 426.269 380.601 426.091C380.995 425.909 381.423 425.818 381.885 425.818C382.226 425.818 382.518 425.847 382.76 425.903C383.002 425.956 383.182 426.006 383.3 426.051L382.902 427.426C382.822 427.403 382.72 427.377 382.595 427.347C382.47 427.312 382.319 427.295 382.141 427.295C381.728 427.295 381.432 427.398 381.254 427.602C381.08 427.807 380.993 428.102 380.993 428.489V438H379.294ZM389.905 434.381V429.273H391.609V438H389.939V436.489H389.848C389.647 436.955 389.325 437.343 388.882 437.653C388.443 437.96 387.895 438.114 387.24 438.114C386.679 438.114 386.183 437.991 385.751 437.744C385.323 437.494 384.986 437.125 384.74 436.636C384.498 436.148 384.376 435.544 384.376 434.824V429.273H386.075V434.619C386.075 435.214 386.24 435.687 386.57 436.04C386.899 436.392 387.327 436.568 387.854 436.568C388.172 436.568 388.488 436.489 388.803 436.33C389.121 436.17 389.384 435.93 389.592 435.608C389.804 435.286 389.909 434.877 389.905 434.381ZM395.341 426.364V438H393.642V426.364H395.341ZM399.075 426.364V438H397.376V426.364H399.075ZM412.561 429.273L409.396 438H407.578L404.408 429.273H406.232L408.442 435.989H408.533L410.737 429.273H412.561ZM413.908 438V429.273H415.607V438H413.908ZM414.766 427.926C414.47 427.926 414.216 427.828 414.004 427.631C413.796 427.43 413.692 427.191 413.692 426.915C413.692 426.634 413.796 426.396 414.004 426.199C414.216 425.998 414.47 425.898 414.766 425.898C415.061 425.898 415.313 425.998 415.521 426.199C415.733 426.396 415.839 426.634 415.839 426.915C415.839 427.191 415.733 427.43 415.521 427.631C415.313 427.828 415.061 427.926 414.766 427.926ZM420.909 438.17C420.205 438.17 419.576 437.991 419.023 437.631C418.473 437.267 418.042 436.75 417.727 436.08C417.417 435.405 417.261 434.597 417.261 433.653C417.261 432.71 417.419 431.903 417.733 431.233C418.051 430.562 418.487 430.049 419.04 429.693C419.593 429.337 420.22 429.159 420.92 429.159C421.462 429.159 421.898 429.25 422.227 429.432C422.561 429.61 422.818 429.818 423 430.057C423.186 430.295 423.33 430.506 423.432 430.688H423.534V426.364H425.233V438H423.574V436.642H423.432C423.33 436.828 423.182 437.04 422.989 437.278C422.799 437.517 422.538 437.725 422.205 437.903C421.871 438.081 421.439 438.17 420.909 438.17ZM421.284 436.722C421.773 436.722 422.186 436.593 422.523 436.335C422.864 436.074 423.121 435.712 423.295 435.25C423.473 434.788 423.562 434.25 423.562 433.636C423.562 433.03 423.475 432.5 423.301 432.045C423.127 431.591 422.871 431.237 422.534 430.983C422.197 430.729 421.78 430.602 421.284 430.602C420.773 430.602 420.347 430.735 420.006 431C419.665 431.265 419.407 431.627 419.233 432.085C419.063 432.544 418.977 433.061 418.977 433.636C418.977 434.22 419.064 434.744 419.239 435.21C419.413 435.676 419.67 436.045 420.011 436.318C420.356 436.587 420.78 436.722 421.284 436.722ZM431.169 438.176C430.309 438.176 429.569 437.992 428.947 437.625C428.33 437.254 427.853 436.733 427.516 436.062C427.182 435.388 427.016 434.598 427.016 433.693C427.016 432.799 427.182 432.011 427.516 431.33C427.853 430.648 428.322 430.116 428.925 429.733C429.531 429.35 430.239 429.159 431.05 429.159C431.542 429.159 432.019 429.241 432.482 429.403C432.944 429.566 433.358 429.822 433.726 430.17C434.093 430.519 434.383 430.972 434.595 431.528C434.807 432.081 434.913 432.754 434.913 433.545V434.148H427.976V432.875H433.249C433.249 432.428 433.158 432.032 432.976 431.688C432.794 431.339 432.538 431.064 432.209 430.864C431.883 430.663 431.5 430.562 431.061 430.562C430.584 430.562 430.167 430.68 429.811 430.915C429.459 431.146 429.186 431.449 428.993 431.824C428.804 432.195 428.709 432.598 428.709 433.034V434.028C428.709 434.612 428.811 435.108 429.016 435.517C429.224 435.926 429.514 436.239 429.885 436.455C430.256 436.667 430.69 436.773 431.186 436.773C431.508 436.773 431.802 436.727 432.067 436.636C432.332 436.542 432.561 436.402 432.754 436.216C432.947 436.03 433.095 435.801 433.197 435.528L434.805 435.818C434.677 436.292 434.446 436.706 434.112 437.062C433.783 437.415 433.368 437.689 432.868 437.886C432.372 438.08 431.805 438.176 431.169 438.176ZM440.224 438.176C439.406 438.176 438.692 437.989 438.082 437.614C437.473 437.239 436.999 436.714 436.662 436.04C436.325 435.366 436.156 434.578 436.156 433.676C436.156 432.771 436.325 431.979 436.662 431.301C436.999 430.623 437.473 430.097 438.082 429.722C438.692 429.347 439.406 429.159 440.224 429.159C441.043 429.159 441.757 429.347 442.366 429.722C442.976 430.097 443.45 430.623 443.787 431.301C444.124 431.979 444.293 432.771 444.293 433.676C444.293 434.578 444.124 435.366 443.787 436.04C443.45 436.714 442.976 437.239 442.366 437.614C441.757 437.989 441.043 438.176 440.224 438.176ZM440.23 436.75C440.76 436.75 441.2 436.61 441.548 436.33C441.897 436.049 442.154 435.676 442.321 435.21C442.491 434.744 442.577 434.231 442.577 433.67C442.577 433.114 442.491 432.602 442.321 432.136C442.154 431.667 441.897 431.29 441.548 431.006C441.2 430.722 440.76 430.58 440.23 430.58C439.696 430.58 439.253 430.722 438.901 431.006C438.552 431.29 438.293 431.667 438.122 432.136C437.955 432.602 437.872 433.114 437.872 433.67C437.872 434.231 437.955 434.744 438.122 435.21C438.293 435.676 438.552 436.049 438.901 436.33C439.253 436.61 439.696 436.75 440.23 436.75ZM450.418 432.182C450.418 430.758 450.605 429.447 450.98 428.25C451.355 427.053 451.902 425.949 452.622 424.938H454.179C453.899 425.312 453.637 425.773 453.395 426.318C453.152 426.864 452.94 427.462 452.759 428.114C452.577 428.761 452.435 429.434 452.332 430.131C452.23 430.824 452.179 431.508 452.179 432.182C452.179 433.083 452.268 433.996 452.446 434.92C452.624 435.845 452.865 436.703 453.168 437.494C453.471 438.286 453.808 438.932 454.179 439.432H452.622C451.902 438.42 451.355 437.316 450.98 436.119C450.605 434.922 450.418 433.61 450.418 432.182ZM455.697 438V436.727L459.635 432.648C460.055 432.205 460.402 431.816 460.675 431.483C460.951 431.146 461.158 430.826 461.294 430.523C461.43 430.22 461.499 429.898 461.499 429.557C461.499 429.17 461.408 428.837 461.226 428.557C461.044 428.273 460.796 428.055 460.482 427.903C460.167 427.748 459.813 427.67 459.419 427.67C459.002 427.67 458.639 427.756 458.328 427.926C458.018 428.097 457.779 428.337 457.612 428.648C457.446 428.958 457.362 429.322 457.362 429.739H455.686C455.686 429.03 455.849 428.411 456.175 427.881C456.5 427.35 456.947 426.939 457.516 426.648C458.084 426.352 458.73 426.205 459.453 426.205C460.184 426.205 460.828 426.35 461.385 426.642C461.946 426.93 462.383 427.324 462.697 427.824C463.012 428.32 463.169 428.881 463.169 429.506C463.169 429.938 463.088 430.36 462.925 430.773C462.766 431.186 462.487 431.646 462.089 432.153C461.692 432.657 461.139 433.269 460.43 433.989L458.118 436.409V436.494H463.357V438H455.697ZM469.267 438V429.273H470.898V430.693H471.006C471.188 430.212 471.485 429.837 471.898 429.568C472.311 429.295 472.805 429.159 473.381 429.159C473.964 429.159 474.453 429.295 474.847 429.568C475.244 429.841 475.538 430.216 475.727 430.693H475.818C476.027 430.227 476.358 429.856 476.812 429.58C477.267 429.299 477.809 429.159 478.438 429.159C479.229 429.159 479.875 429.407 480.375 429.903C480.879 430.4 481.131 431.148 481.131 432.148V438H479.432V432.307C479.432 431.716 479.271 431.288 478.949 431.023C478.627 430.758 478.242 430.625 477.795 430.625C477.242 430.625 476.812 430.795 476.506 431.136C476.199 431.473 476.045 431.907 476.045 432.438V438H474.352V432.199C474.352 431.725 474.205 431.345 473.909 431.057C473.614 430.769 473.229 430.625 472.756 430.625C472.434 430.625 472.136 430.71 471.864 430.881C471.595 431.047 471.377 431.28 471.21 431.58C471.047 431.879 470.966 432.225 470.966 432.619V438H469.267ZM483.158 438V429.273H484.857V438H483.158ZM484.016 427.926C483.72 427.926 483.466 427.828 483.254 427.631C483.046 427.43 482.942 427.191 482.942 426.915C482.942 426.634 483.046 426.396 483.254 426.199C483.466 425.998 483.72 425.898 484.016 425.898C484.311 425.898 484.563 425.998 484.771 426.199C484.983 426.396 485.089 426.634 485.089 426.915C485.089 427.191 484.983 427.43 484.771 427.631C484.563 427.828 484.311 427.926 484.016 427.926ZM488.591 432.818V438H486.892V429.273H488.523V430.693H488.631C488.831 430.231 489.146 429.86 489.574 429.58C490.006 429.299 490.549 429.159 491.205 429.159C491.799 429.159 492.32 429.284 492.767 429.534C493.214 429.78 493.561 430.148 493.807 430.636C494.053 431.125 494.176 431.729 494.176 432.449V438H492.477V432.653C492.477 432.021 492.313 431.527 491.983 431.17C491.653 430.811 491.201 430.631 490.625 430.631C490.231 430.631 489.881 430.716 489.574 430.886C489.271 431.057 489.03 431.307 488.852 431.636C488.678 431.962 488.591 432.356 488.591 432.818ZM499.472 433.17C499.472 434.598 499.284 435.911 498.909 437.108C498.534 438.305 497.987 439.409 497.267 440.42H495.71C495.991 440.045 496.252 439.585 496.494 439.04C496.737 438.494 496.949 437.898 497.131 437.25C497.313 436.598 497.455 435.924 497.557 435.227C497.659 434.53 497.71 433.845 497.71 433.17C497.71 432.273 497.621 431.362 497.443 430.438C497.265 429.513 497.025 428.655 496.722 427.864C496.419 427.072 496.081 426.426 495.71 425.926H497.267C497.987 426.937 498.534 428.042 498.909 429.239C499.284 430.436 499.472 431.746 499.472 433.17Z" fill="#191919"/>
<circle cx="274" cy="432" r="11" stroke="#999999" stroke-width="2"/>
<path d="M272 437L278 432L272 427V437Z" fill="#999999"/>
</g>
<defs>
<filter id="filter0_d_3_745" x="273" y="130" width="224" height="224" filterUnits="userSpaceOnUse" color-interpolation-filters="sRGB">
<feFlood flood-opacity="0" result="BackgroundImageFix"/>
<feColorMatrix in="SourceAlpha" type="matrix" values="0 0 0 0 0 0 0 0 0 0 0 0 0 0 0 0 0 0 127 0" result="hardAlpha"/>
<feOffset dy="24"/>
<feGaussianBlur stdDeviation="24"/>
<feColorMatrix type="matrix" values="0 0 0 0 0.0980392 0 0 0 0 0.0980392 0 0 0 0 0.0980392 0 0 0 0.32 0"/>
<feBlend mode="normal" in2="BackgroundImageFix" result="effect1_dropShadow_3_745"/>
<feBlend mode="normal" in="SourceGraphic" in2="effect1_dropShadow_3_745" result="shape"/>
</filter>
<filter id="filter1_d_3_745" x="477.996" y="118.997" width="120.007" height="120.007" filterUnits="userSpaceOnUse" color-interpolation-filters="sRGB">
<feFlood flood-opacity="0" result="BackgroundImageFix"/>
<feColorMatrix in="SourceAlpha" type="matrix" values="0 0 0 0 0 0 0 0 0 0 0 0 0 0 0 0 0 0 127 0" result="hardAlpha"/>
<feMorphology radius="5" operator="erode" in="SourceAlpha" result="effect1_dropShadow_3_745"/>
<feOffset dy="20"/>
<feGaussianBlur stdDeviation="12.5"/>
<feColorMatrix type="matrix" values="0 0 0 0 0.0980392 0 0 0 0 0.0980392 0 0 0 0 0.0980392 0 0 0 0.16 0"/>
<feBlend mode="normal" in2="BackgroundImageFix" result="effect1_dropShadow_3_745"/>
<feBlend mode="normal" in="SourceGraphic" in2="effect1_dropShadow_3_745" result="shape"/>
</filter>
<filter id="filter2_d_3_745" x="176" y="262" width="106" height="106" filterUnits="userSpaceOnUse" color-interpolation-filters="sRGB">
<feFlood flood-opacity="0" result="BackgroundImageFix"/>
<feColorMatrix in="SourceAlpha" type="matrix" values="0 0 0 0 0 0 0 0 0 0 0 0 0 0 0 0 0 0 127 0" result="hardAlpha"/>
<feMorphology radius="5" operator="erode" in="SourceAlpha" result="effect1_dropShadow_3_745"/>
<feOffset dy="20"/>
<feGaussianBlur stdDeviation="12.5"/>
<feColorMatrix type="matrix" values="0 0 0 0 0.0980392 0 0 0 0 0.0980392 0 0 0 0 0.0980392 0 0 0 0.16 0"/>
<feBlend mode="normal" in2="BackgroundImageFix" result="effect1_dropShadow_3_745"/>
<feBlend mode="normal" in="SourceGraphic" in2="effect1_dropShadow_3_745" result="shape"/>
</filter>
<filter id="filter3_d_3_745" x="234" y="402" width="300" height="80" filterUnits="userSpaceOnUse" color-interpolation-filters="sRGB">
<feFlood flood-opacity="0" result="BackgroundImageFix"/>
<feColorMatrix in="SourceAlpha" type="matrix" values="0 0 0 0 0 0 0 0 0 0 0 0 0 0 0 0 0 0 127 0" result="hardAlpha"/>
<feMorphology radius="3" operator="erode" in="SourceAlpha" result="effect1_dropShadow_3_745"/>
<feOffset dy="10"/>
<feGaussianBlur stdDeviation="7.5"/>
<feColorMatrix type="matrix" values="0 0 0 0 0.0980392 0 0 0 0 0.12549 0 0 0 0 0.172549 0 0 0 0.16 0"/>
<feBlend mode="normal" in2="BackgroundImageFix" result="effect1_dropShadow_3_745"/>
<feBlend mode="normal" in="SourceGraphic" in2="effect1_dropShadow_3_745" result="shape"/>
</filter>
<linearGradient id="paint0_linear_3_745" x1="257" y1="90" x2="257" y2="346" gradientUnits="userSpaceOnUse">
<stop stop-color="white"/>
<stop offset="0.774017" stop-color="#EAEAEA"/>
<stop offset="1" stop-color="#DFDFDF"/>
</linearGradient>
<linearGradient id="paint1_linear_3_745" x1="289.73" y1="122" x2="289.73" y2="312.541" gradientUnits="userSpaceOnUse">
<stop stop-color="white"/>
<stop offset="0.485697" stop-color="#EAEAEA"/>
<stop offset="1" stop-color="#DFDFDF" stop-opacity="0.01"/>
</linearGradient>
<radialGradient id="paint2_radial_3_745" cx="0" cy="0" r="1" gradientUnits="userSpaceOnUse" gradientTransform="translate(348.074 264.16) rotate(-50.9808) scale(102.325)">
<stop stop-color="#4FD1C5"/>
<stop offset="0.258711" stop-color="#81E6D9"/>
<stop offset="1" stop-color="#338CF5"/>
</radialGradient>
<linearGradient id="paint3_linear_3_745" x1="627.565" y1="371.003" x2="91" y2="371.003" gradientUnits="userSpaceOnUse">
<stop stop-color="white" stop-opacity="0.01"/>
<stop offset="0.459096" stop-color="white"/>
<stop offset="1" stop-color="white" stop-opacity="0.01"/>
</linearGradient>
<linearGradient id="paint4_linear_3_745" x1="627.565" y1="66.0032" x2="91" y2="66.0032" gradientUnits="userSpaceOnUse">
<stop stop-color="white" stop-opacity="0.01"/>
<stop offset="0.459096" stop-color="white"/>
<stop offset="1" stop-color="white" stop-opacity="0.01"/>
</linearGradient>
<linearGradient id="paint5_linear_3_745" x1="544.997" y1="298.565" x2="544.997" y2="-238" gradientUnits="userSpaceOnUse">
<stop stop-color="white" stop-opacity="0.01"/>
<stop offset="0.459096" stop-color="white"/>
<stop offset="1" stop-color="white" stop-opacity="0.01"/>
</linearGradient>
<linearGradient id="paint6_linear_3_745" x1="224.997" y1="670.565" x2="224.997" y2="134" gradientUnits="userSpaceOnUse">
<stop stop-color="white" stop-opacity="0.01"/>
<stop offset="0.459096" stop-color="white"/>
<stop offset="1" stop-color="white" stop-opacity="0.01"/>
</linearGradient>
<linearGradient id="paint7_linear_3_745" x1="450.916" y1="228.892" x2="497.701" y2="139.211" gradientUnits="userSpaceOnUse">
<stop stop-color="white" stop-opacity="0.88"/>
<stop offset="1" stop-color="white" stop-opacity="0.01"/>
</linearGradient>
<linearGradient id="paint8_linear_3_745" x1="306.567" y1="231.691" x2="271.06" y2="326.405" gradientUnits="userSpaceOnUse">
<stop stop-color="white" stop-opacity="0.88"/>
<stop offset="1" stop-color="white" stop-opacity="0.01"/>
</linearGradient>
<clipPath id="clip0_3_745">
<rect width="276" height="56" fill="white" transform="translate(246 404)"/>
</clipPath>
</defs>
</svg>
