<svg width="71" height="27" viewBox="0 0 71 27" fill="none" xmlns="http://www.w3.org/2000/svg">
<path fill-rule="evenodd" clip-rule="evenodd" d="M10.5932 0.704346C10.7126 0.759802 10.8012 0.856974 10.8905 0.95486C10.9284 0.996399 10.9664 1.03807 11.0069 1.07673C11.1229 1.17747 11.2234 1.29532 11.3238 1.41312C11.4145 1.51966 11.5053 1.62616 11.6076 1.71994C11.7828 1.88699 11.9163 2.08335 12.0501 2.28009C12.1196 2.38238 12.1893 2.48476 12.2648 2.58319C12.6502 3.16434 12.9901 3.78498 13.1658 4.46204C13.3471 4.9247 13.3754 5.42685 13.3641 5.92337C13.3754 6.37474 13.2508 6.82047 13.0467 7.22671C12.6955 7.84171 12.0609 8.25359 11.3978 8.47363C10.5706 8.67111 9.6583 8.70496 8.85935 8.35515C8.78089 8.31227 8.69952 8.27313 8.61796 8.23389C8.39902 8.12858 8.17866 8.02258 8.0094 7.84171C7.47111 7.40162 7.15946 6.68506 7.26145 5.99107C7.42011 4.75543 8.16239 3.6947 8.95568 2.78067C8.99584 2.85451 8.99556 2.93506 8.99527 3.01592C8.99503 3.08334 8.99479 3.15098 9.01801 3.21512C9.086 3.51415 9.19366 3.83012 9.42031 4.04452C9.46062 4.00766 9.50129 3.9708 9.54209 3.93382L9.54222 3.9337C9.78242 3.71599 10.0273 3.49408 10.2306 3.24333C10.446 2.92737 10.6216 2.57755 10.6952 2.20517C10.6971 2.15381 10.6993 2.10218 10.7014 2.05038C10.7194 1.62414 10.738 1.1858 10.5762 0.783336L10.5932 0.704346ZM0.212631 6.34094C0.780845 6.34577 1.3501 6.34439 1.91951 6.34301C2.6788 6.34117 3.43836 6.33932 4.19609 6.35222C4.19609 6.72702 4.19701 7.10182 4.19793 7.47662C4.20022 8.41645 4.20252 9.35628 4.19037 10.2961C4.86195 10.3082 5.53347 10.3059 6.20705 10.3036C6.47694 10.3027 6.74716 10.3017 7.01785 10.3017C7.02918 10.4033 7.03485 10.5049 7.03485 10.6064C7.0297 11.0989 7.0304 11.5901 7.0311 12.0813C7.03195 12.6706 7.03279 13.2598 7.02352 13.8507C6.48312 13.8571 5.94457 13.8562 5.40576 13.8553H5.40566H5.40556H5.40546H5.40537H5.40527H5.40517H5.40507H5.40497H5.40487H5.4046C5.0003 13.8546 4.59586 13.8539 4.19037 13.8563C4.19887 14.8296 4.19745 15.8015 4.19604 16.7733C4.19462 17.7452 4.1932 18.7171 4.2017 19.6903C4.2357 19.8596 4.25836 20.0289 4.2527 20.2038C4.24172 20.3055 4.27772 20.3955 4.31385 20.4859C4.33385 20.5359 4.35389 20.586 4.36602 20.6382C4.43969 20.9768 4.62667 21.2814 4.84194 21.5467C5.15931 21.8626 5.56722 22.0827 6.00353 22.1785C6.40017 22.2407 6.79681 22.2745 7.19917 22.2463C7.22178 22.314 7.23317 22.3817 7.23317 22.455C7.2275 23.4706 7.2275 24.4862 7.23317 25.4962C7.23317 25.6172 7.21231 25.7382 7.19207 25.8557L7.18217 25.9136C6.99141 25.9136 6.80065 25.918 6.60989 25.9224H6.60983C6.22833 25.9312 5.84683 25.9399 5.46529 25.9136C5.33846 25.8863 5.20848 25.8738 5.0783 25.8613H5.07828H5.07826C4.85948 25.8404 4.64009 25.8194 4.43402 25.7274C3.52175 25.513 2.64914 25.0616 1.99751 24.3789C1.03991 23.4593 0.524277 22.1616 0.314624 20.8752C0.279764 20.7884 0.279218 20.6931 0.278669 20.5971C0.278325 20.5371 0.27798 20.4768 0.269237 20.4182C0.212602 20.1965 0.213754 19.9661 0.214898 19.7374C0.215355 19.646 0.21581 19.5549 0.212574 19.4647C0.206965 15.092 0.206965 10.7136 0.212631 6.34094ZM19.9546 9.95846C19.8246 9.96135 19.6943 9.96425 19.5687 9.997C18.5488 10.1381 17.5515 10.4935 16.7072 11.0802C16.2824 11.3164 15.9329 11.6702 15.5957 12.0116L15.5682 12.0394C15.1263 12.4739 14.7863 12.9986 14.503 13.5459C14.214 14.1722 13.9533 14.8267 13.8513 15.515C13.825 15.5988 13.8219 15.6875 13.8188 15.777V15.777C13.8152 15.8804 13.8115 15.9851 13.7721 16.0849C13.7522 16.3456 13.7518 16.6062 13.7514 16.8669C13.7513 16.9786 13.7511 17.0903 13.7494 17.2021C13.7543 18.4471 13.7529 19.6931 13.7515 20.9393V20.9394V20.9395V20.9396V20.9397V20.9398V20.9399V20.94V20.9401V20.9403C13.7496 22.6023 13.7478 24.2645 13.7607 25.9249C14.4901 25.9157 15.2195 25.9165 15.9488 25.9173C16.5567 25.918 17.1646 25.9187 17.7725 25.9136C17.7762 23.9048 17.775 21.8934 17.7737 19.8829V19.8823V19.8817V19.8811V19.8804V19.8798V19.8792V19.8785V19.8779C17.7731 18.8747 17.7725 17.8716 17.7725 16.8692C17.7611 16.1921 17.9085 15.4699 18.3561 14.9396C18.628 14.5615 19.0133 14.2907 19.427 14.0932C19.9937 13.8619 20.6113 13.8111 21.2176 13.8506C21.3216 13.8879 21.4318 13.8917 21.5436 13.8956C21.584 13.897 21.6246 13.8984 21.6652 13.9014L21.6907 13.9084C21.9718 13.9851 22.262 14.0644 22.5094 14.2286C22.5749 14.2893 22.6467 14.3437 22.7186 14.3983C22.8273 14.4807 22.9365 14.5635 23.0251 14.6687C23.2744 14.9621 23.4558 15.3063 23.5974 15.6674C23.6767 16.0229 23.7447 16.384 23.7391 16.7563C23.7391 17.7644 23.7384 18.7731 23.7378 19.7822V19.7835V19.7847V19.786V19.7873V19.7885V19.7898V19.791V19.7923C23.7366 21.8184 23.7353 23.8463 23.7391 25.8741C23.7504 25.8854 23.7787 25.908 23.7901 25.9136C24.2849 25.9157 24.7798 25.9155 25.2749 25.9152H25.275H25.2751H25.2752H25.2753H25.2754H25.2755H25.2756H25.2757C26.1013 25.9147 26.9278 25.9143 27.7565 25.9249C27.763 24.6836 27.762 23.4424 27.7611 22.2011C27.7604 21.2701 27.7597 20.3392 27.7621 19.4082C27.7603 19.0456 27.7609 18.6825 27.7615 18.3191V18.319V18.3188V18.3187V18.3185V18.3184V18.3182V18.318V18.3179V18.3178V18.3178V18.3177V18.3177V18.3176V18.3176V18.3175V18.3175C27.7628 17.5899 27.764 16.8616 27.7451 16.1357C27.6828 15.6448 27.6148 15.1483 27.4844 14.6687C27.2748 14.0142 27.0311 13.3654 26.6628 12.7842C26.5865 12.6497 26.4872 12.5348 26.3881 12.42C26.296 12.3134 26.2039 12.2069 26.1303 12.0846C25.2633 11.1029 24.0677 10.4314 22.8041 10.1268C22.7217 10.1104 22.6396 10.092 22.5577 10.0736L22.5576 10.0736C22.3014 10.0161 22.046 9.95887 21.7842 9.96315C21.6339 9.95799 21.4836 9.94705 21.3332 9.93611H21.3332H21.3332H21.3332H21.3331H21.3331H21.3331H21.3331H21.3331C20.9901 9.91116 20.6462 9.88616 20.2996 9.92929C20.1872 9.95328 20.071 9.95587 19.9546 9.95846ZM67.0523 9.96313C67.2133 9.95945 67.3737 9.94673 67.5339 9.93403C67.8642 9.90785 68.1936 9.88174 68.5255 9.93492C68.7116 9.95859 68.9006 9.96295 69.0884 9.96729C69.1693 9.96916 69.2499 9.97102 69.3301 9.97442C69.3627 10.2886 69.3582 10.6052 69.3537 10.9211V10.9213V10.9215V10.9218V10.922V10.9222V10.9225V10.9227C69.3512 11.0997 69.3486 11.2766 69.3527 11.4527V13.4274C69.3527 13.4522 69.3534 13.4771 69.3541 13.5022C69.3568 13.6028 69.3596 13.7049 69.3187 13.7998C69.2355 13.7386 69.1339 13.7303 69.033 13.722C68.9757 13.7172 68.9187 13.7125 68.8654 13.6983C68.2647 13.6475 67.6472 13.6757 67.0805 13.9014C66.4062 14.1328 65.8169 14.6236 65.4883 15.2612C65.4427 15.3172 65.4187 15.3845 65.3947 15.4518C65.3679 15.527 65.3411 15.6023 65.2843 15.6618C65.1086 16.2937 65.0973 16.9539 65.1086 17.6027C65.1065 18.5946 65.1081 19.5858 65.1097 20.5767V20.577V20.5773V20.5775V20.5778V20.5781V20.5784V20.5786C65.1126 22.3604 65.1155 24.1415 65.0973 25.9249C64.3776 25.9157 63.6563 25.9165 62.9342 25.9174H62.934H62.9338H62.9336H62.9334H62.9332H62.933H62.9328H62.9324C62.3304 25.9181 61.7278 25.9188 61.1251 25.9136C61.1195 25.908 61.1124 25.8995 61.1053 25.8911C61.0982 25.8826 61.0911 25.8741 61.0855 25.8685V16.8128C61.0765 16.6122 61.0962 16.4147 61.1158 16.2179C61.1332 16.0439 61.1505 15.8704 61.1479 15.6956C61.2011 15.5896 61.2153 15.4739 61.2294 15.3587C61.2393 15.2777 61.2491 15.197 61.2725 15.1201C61.5558 13.6927 62.3095 12.3442 63.4541 11.4245C63.5919 11.2696 63.7674 11.1652 63.9431 11.0606C64.049 10.9976 64.155 10.9345 64.253 10.8603C65.0974 10.3468 66.0777 10.0985 67.0523 9.96313ZM10.445 10.3034C9.73701 10.3057 9.02906 10.308 8.32111 10.2961C8.31827 12.4739 8.31827 14.6518 8.31827 16.829C8.31827 19.0062 8.31827 21.1827 8.31544 23.3577C8.31984 23.6888 8.31826 24.0208 8.31667 24.3529C8.31417 24.8754 8.31167 25.3984 8.33249 25.9193H12.2535C12.3328 25.9362 12.3328 25.8346 12.3328 25.7839C12.3291 22.3463 12.3303 18.9087 12.3316 15.4695C12.3322 13.7493 12.3328 12.0286 12.3328 10.3074C11.7035 10.2994 11.0743 10.3014 10.445 10.3034ZM50.28 20.768C50.4271 20.7118 50.5722 20.6482 50.7174 20.5846C50.9076 20.5012 51.0982 20.4177 51.2942 20.3505C51.5435 20.2546 51.79 20.1488 52.0365 20.043C52.2829 19.9372 52.5294 19.8314 52.7787 19.7355C53.4047 19.4479 54.0432 19.1893 54.6816 18.9308C55.0949 18.7634 55.5081 18.5961 55.9179 18.4209C56.0335 18.3581 56.1564 18.311 56.2794 18.264L56.2794 18.264C56.4215 18.2097 56.5635 18.1554 56.6941 18.0767C56.7691 18.0477 56.8442 18.0196 56.9191 17.9915L56.9195 17.9913L56.9196 17.9913L56.9196 17.9913L56.9196 17.9913L56.9197 17.9913L56.9197 17.9913C57.1218 17.9154 57.3231 17.8399 57.5214 17.7494C57.6534 17.6712 57.7958 17.619 57.938 17.5669C58.0523 17.525 58.1665 17.4831 58.275 17.4279C58.3975 17.3786 58.5184 17.327 58.6391 17.2754L58.6392 17.2753L58.6392 17.2753L58.6393 17.2753L58.6393 17.2753L58.6393 17.2753L58.6395 17.2752C58.837 17.1908 59.0344 17.1064 59.2383 17.0329C59.4098 16.9374 59.5918 16.8671 59.7734 16.7969C59.9459 16.7303 60.1181 16.6638 60.2809 16.5758C60.3161 16.5517 60.3598 16.5396 60.4035 16.5274C60.4722 16.5082 60.5408 16.4891 60.5755 16.4235C60.5186 16.3435 60.5131 16.2516 60.5076 16.1596C60.5039 16.0959 60.5001 16.0321 60.4792 15.9721L60.4537 15.8806L60.4536 15.8801C60.3886 15.6468 60.3246 15.4173 60.2696 15.1879C60.0146 14.4037 59.6463 13.6532 59.1477 12.9988C58.5414 12.1242 57.7084 11.4189 56.7848 10.8999C56.1785 10.5331 55.4986 10.3244 54.8186 10.1438C54.656 10.1241 54.496 10.09 54.3362 10.0559C54.0839 10.0022 53.8322 9.94852 53.572 9.95197C53.1867 9.90119 52.7901 9.87862 52.4104 9.94633C51.7361 9.95761 51.0902 10.1212 50.4499 10.3074C49.3336 10.6967 48.274 11.2892 47.4184 12.1073C47.2765 12.2392 47.1487 12.3833 47.0212 12.527L47.0211 12.527L47.0211 12.527L47.0211 12.5271L47.0211 12.5271L47.021 12.5271L47.021 12.5271C46.9195 12.6416 46.8181 12.7558 46.7101 12.8633C46.3305 13.3486 45.9848 13.862 45.7242 14.4149C45.3559 15.2443 45.0046 16.1132 44.9649 17.0329C44.8672 17.378 44.8705 17.7369 44.8737 18.0934V18.0936V18.0938V18.0941V18.0943C44.8746 18.1922 44.8755 18.2899 44.8743 18.387C44.8629 18.6748 44.9083 18.9569 44.9649 19.2334C44.954 19.4211 44.9965 19.5996 45.0389 19.7778C45.0628 19.878 45.0866 19.9781 45.1009 20.0797C45.187 20.614 45.4087 21.1122 45.6287 21.6067C45.655 21.6657 45.6812 21.7246 45.7072 21.7836C46.3758 23.149 47.4297 24.3338 48.75 25.1068C49.6169 25.6372 50.5802 26.0152 51.5888 26.1563C52.4104 26.2861 53.2547 26.3086 54.082 26.2015C54.2452 26.2144 54.4047 26.1787 54.5647 26.1429C54.6825 26.1165 54.8005 26.0901 54.9206 26.0829C56.1275 25.8008 57.3118 25.293 58.224 24.441C58.4961 24.2266 58.7511 23.9727 58.9664 23.7019C59.3212 23.343 59.5785 22.9085 59.8336 22.4776L59.8503 22.4494C60.0996 21.981 60.3036 21.4845 60.451 20.9711C60.3873 20.9439 60.3163 20.9458 60.2497 20.9476C60.2334 20.9481 60.2173 20.9485 60.2017 20.9485C59.5376 20.9514 58.875 20.95 58.2123 20.9485C57.5519 20.9471 56.8915 20.9457 56.2296 20.9485C56.1528 20.9485 56.1233 21.0128 56.0934 21.078C56.0748 21.1186 56.056 21.1595 56.0256 21.1855C55.7989 21.5128 55.5099 21.7892 55.204 22.0488C54.762 22.3648 54.2407 22.534 53.7251 22.6863C53.687 22.6911 53.6493 22.6941 53.6121 22.697L53.6121 22.697L53.612 22.697L53.6119 22.697L53.6119 22.697C53.5164 22.7046 53.4238 22.7119 53.3341 22.7484C53.062 22.7678 52.7857 22.7622 52.5088 22.7567L52.3708 22.7541C52.0138 22.6864 51.6569 22.6074 51.3112 22.4945C50.7786 22.2237 50.2573 21.9134 49.855 21.4733C49.8231 21.4344 49.785 21.3983 49.7468 21.3621C49.6629 21.2825 49.5781 21.202 49.5547 21.0896C49.5838 21.0769 49.6124 21.0619 49.6411 21.0468C49.7017 21.0149 49.7631 20.9826 49.8323 20.9711C49.9217 20.9558 49.9994 20.9103 50.0771 20.8649C50.1423 20.8267 50.2076 20.7886 50.28 20.768ZM48.6215 17.5046C48.6093 17.6447 48.597 17.7859 48.648 17.913C49.2544 17.6253 49.872 17.3657 50.4952 17.1231C51.1691 16.8154 51.8545 16.5362 52.5402 16.2568C53.0364 16.0547 53.5329 15.8524 54.0253 15.6392C54.0906 15.6183 54.1531 15.5888 54.2154 15.5594C54.3045 15.5173 54.3933 15.4753 54.49 15.4587C54.6784 15.3518 54.8787 15.2731 55.0787 15.1945L55.0788 15.1944C55.2697 15.1194 55.4604 15.0444 55.6402 14.9452C55.6639 14.9295 55.6973 14.9173 55.7317 14.9047C55.821 14.872 55.9175 14.8366 55.8725 14.7308C55.2663 13.9916 54.3256 13.5911 53.3907 13.4613C53.3075 13.46 53.224 13.4565 53.1403 13.4531C52.8653 13.4417 52.5892 13.4303 52.3198 13.4952C52.0383 13.4952 51.7719 13.5855 51.5052 13.676C51.4068 13.7094 51.3084 13.7427 51.2092 13.7716C51.077 13.8318 50.9498 13.902 50.8226 13.9722C50.759 14.0073 50.6954 14.0424 50.6312 14.0763C50.4552 14.1715 50.3102 14.3054 50.1648 14.4396C50.0949 14.5041 50.0249 14.5688 49.9513 14.6292C49.464 15.1314 49.1297 15.7576 48.8577 16.3952C48.7978 16.5554 48.7624 16.7209 48.7272 16.8857C48.6992 17.017 48.6712 17.1479 48.631 17.2755C48.6351 17.3498 48.6283 17.4271 48.6215 17.5046ZM42.2994 3.39667H42.2994C41.7675 3.39736 41.2357 3.39805 40.7039 3.39563C40.6748 3.39926 40.6439 3.39764 40.613 3.39602C40.5476 3.3926 40.4819 3.38917 40.4319 3.43513C40.4384 4.94838 40.4374 6.46347 40.4365 7.9783V7.97839V7.97849V7.97859C40.4358 9.11825 40.4352 10.2578 40.4376 11.3963C40.4358 11.4264 40.4368 11.4565 40.4378 11.4864C40.44 11.5518 40.4422 11.6164 40.415 11.6784C40.3394 11.6671 40.289 11.6157 40.2387 11.5643C40.2135 11.5386 40.1883 11.5129 40.16 11.4922C39.5877 11.0013 38.9474 10.5838 38.2334 10.3412C37.7518 10.155 37.2475 10.0591 36.7376 9.96878L36.5673 9.96535C36.0451 9.95466 35.5187 9.94389 34.9923 9.97442L34.9723 9.97989C34.9177 9.99487 34.8666 10.0089 34.811 10.0139C33.5135 10.1945 32.3008 10.7982 31.3036 11.6276C30.7483 12.1467 30.193 12.6883 29.802 13.3428C29.3431 13.9917 29.0484 14.7364 28.7651 15.4699L28.7571 15.4984C28.6295 15.9514 28.5032 16.3993 28.4477 16.8635C28.3596 17.4596 28.374 18.067 28.3884 18.6703L28.3884 18.6707C28.3915 18.8039 28.3947 18.937 28.3967 19.0696C28.4076 19.1428 28.4233 19.2143 28.439 19.2855C28.4644 19.4009 28.4896 19.5152 28.4931 19.6338C28.5951 20.2545 28.7764 20.8638 29.0256 21.445C29.2041 21.9204 29.4769 22.359 29.7463 22.7921L29.7463 22.7921C29.7935 22.8679 29.8405 22.9435 29.8869 23.0191C29.9185 23.0595 29.95 23.1001 29.9816 23.1407L29.9819 23.1412L29.982 23.1412C30.1708 23.3846 30.3615 23.6303 30.5895 23.8429C30.642 23.8944 30.6943 23.9465 30.7469 23.9987C31.0915 24.3415 31.443 24.6912 31.8757 24.9262C32.4631 25.3705 33.1574 25.6354 33.8352 25.8941L33.8419 25.8967C33.9455 25.9154 34.0461 25.9507 34.1467 25.986C34.2882 26.0356 34.4295 26.0852 34.5786 26.0885C34.6715 26.0958 34.7612 26.1189 34.8505 26.1418C34.9682 26.172 35.0851 26.2021 35.2076 26.1956C35.2637 26.1901 35.3171 26.2066 35.3711 26.2234C35.4261 26.2405 35.4818 26.2578 35.5418 26.2521C36.0915 26.269 36.6468 26.269 37.1964 26.2521C37.2443 26.2521 37.2923 26.241 37.3411 26.2298C37.3846 26.2198 37.4287 26.2096 37.474 26.2069C37.7071 26.2104 37.9296 26.1564 38.1518 26.1025C38.2915 26.0686 38.4311 26.0347 38.5732 26.0151C38.7188 25.9622 38.8675 25.915 39.0164 25.8678C39.3603 25.7586 39.7058 25.6489 40.0181 25.4679C40.6811 25.1632 41.2817 24.7344 41.82 24.2491C42.5 23.6624 43.0496 22.9289 43.4576 22.1276C43.495 22.052 43.5334 21.9769 43.5718 21.9018C43.7138 21.6239 43.8557 21.3464 43.9449 21.0443C44.1603 20.514 44.2565 19.9497 44.3302 19.3912C44.4254 19.0164 44.4248 18.6286 44.4242 18.2401V18.24C44.424 18.1196 44.4239 17.9992 44.4265 17.8791L44.4266 3.40127C43.7176 3.39483 43.0085 3.39575 42.2994 3.39667ZM39.8711 20.3843C40.1374 19.8483 40.364 19.2785 40.398 18.6803C40.5453 17.4785 40.211 16.2316 39.4858 15.2613C39.3979 15.1794 39.3214 15.0877 39.2449 14.996C39.1684 14.9043 39.092 14.8127 39.0042 14.7309C38.5282 14.2795 37.9219 13.9749 37.31 13.7548L37.2639 13.7464C36.8131 13.6641 36.3425 13.5781 35.8877 13.6928C35.7368 13.6928 35.5931 13.7403 35.4504 13.7876C35.3733 13.8131 35.2965 13.8385 35.219 13.8563C34.6298 14.0989 34.0462 14.4093 33.6212 14.8945C33.5711 14.9586 33.5171 15.0198 33.4631 15.0811L33.463 15.0811C33.3458 15.2141 33.2284 15.3473 33.1508 15.5095C33.0118 15.6843 32.92 15.885 32.8282 16.0858C32.7778 16.196 32.7274 16.3062 32.6692 16.4122C32.632 16.5143 32.6032 16.6198 32.5746 16.725L32.5745 16.725L32.5745 16.7251C32.5509 16.8117 32.5274 16.898 32.4992 16.9821C32.3698 17.5183 32.387 18.0828 32.4039 18.6367L32.4086 18.7932C32.4317 18.8812 32.4447 18.9715 32.4576 19.0619C32.4796 19.2149 32.5016 19.3679 32.5729 19.5098C32.6749 19.9386 32.8959 20.3279 33.1168 20.7059C33.3946 21.0952 33.7005 21.4733 34.0971 21.7497C34.2477 21.9037 34.4391 21.9966 34.6295 22.0889C34.7043 22.1252 34.7788 22.1613 34.8507 22.2011C34.961 22.2591 35.078 22.2973 35.1944 22.3353C35.2932 22.3675 35.3917 22.3997 35.4854 22.4437C35.8869 22.558 36.3086 22.5437 36.7233 22.5297L36.7234 22.5297L36.7235 22.5297C36.8003 22.5271 36.8768 22.5245 36.9529 22.5227C37.1059 22.4663 37.2646 22.4606 37.4232 22.4606C37.4815 22.3808 37.5726 22.3547 37.6648 22.3281C37.716 22.3134 37.7676 22.2986 37.8142 22.2744C38.6698 21.8682 39.4234 21.225 39.8711 20.3843ZM67.0182 23.9388H68.5028C68.5085 24.0517 68.5085 24.1645 68.5028 24.2774C68.4177 24.2887 68.3327 24.2872 68.2483 24.2858C68.1641 24.2844 68.0806 24.283 67.9985 24.2943C67.9856 24.5845 67.9874 24.8729 67.9893 25.1616C67.9907 25.378 67.9921 25.5945 67.9872 25.812C67.8342 25.8008 67.6812 25.8008 67.5339 25.8064C67.5169 25.4064 67.5226 25.0009 67.5282 24.601V24.6008L67.5282 24.599C67.5282 24.5847 67.5286 24.5701 67.5291 24.5554L67.5293 24.547C67.5324 24.4537 67.5356 24.356 67.4545 24.2943C67.381 24.283 67.3074 24.2845 67.2338 24.2859C67.1601 24.2873 67.0863 24.2887 67.0126 24.2774C67.0068 24.1645 67.0068 24.0517 67.0182 23.9388ZM68.8527 23.9422C68.8267 23.943 68.8008 23.9438 68.7748 23.9445C68.7725 24.1862 68.7739 24.427 68.7752 24.6672C68.7773 25.0271 68.7793 25.3857 68.7691 25.7444C68.8507 25.8171 68.9585 25.8087 69.0651 25.8004C69.099 25.7978 69.1329 25.7952 69.1657 25.7952C69.1953 25.6411 69.1906 25.4852 69.1858 25.3295C69.1823 25.2172 69.1789 25.1051 69.1884 24.994C69.1945 24.9352 69.1904 24.8743 69.1863 24.8133C69.1789 24.7044 69.1716 24.5951 69.2224 24.4975C69.2738 24.5877 69.3041 24.6885 69.3342 24.7889C69.3738 24.9207 69.4132 25.0519 69.5 25.1576C69.5 25.2806 69.5478 25.3895 69.5959 25.4991C69.6339 25.5856 69.672 25.6724 69.687 25.767C69.8004 25.7782 69.908 25.7782 70.0213 25.7613C70.0652 25.5866 70.1301 25.419 70.1949 25.252C70.2724 25.0521 70.3495 24.8531 70.3896 24.6441C70.4223 24.5976 70.4627 24.5627 70.5044 24.5265C70.5133 24.5188 70.5223 24.511 70.5313 24.5031C70.5245 24.753 70.5238 25.0049 70.5231 25.2577C70.5227 25.4272 70.5222 25.597 70.5199 25.7669C70.6616 25.7782 70.7976 25.7782 70.9336 25.7669C70.9336 25.5661 70.9349 25.364 70.9361 25.1615C70.9386 24.7553 70.9412 24.3473 70.9336 23.9445C70.7297 23.9332 70.5257 23.9388 70.3273 23.9445C70.1517 24.3564 69.976 24.7738 69.8627 25.214C69.8842 25.1327 69.8438 25.0709 69.8032 25.0088C69.7903 24.989 69.7773 24.9692 69.7664 24.9488C69.738 24.8528 69.7026 24.7597 69.6672 24.6666C69.6318 24.5735 69.5964 24.4804 69.5681 24.3846C69.5521 24.3232 69.5205 24.2682 69.4892 24.2138C69.4428 24.133 69.397 24.0534 69.4038 23.9557C69.2201 23.931 69.0364 23.9366 68.8527 23.9422Z" fill="#7F7F7F"/>
</svg>
